<svg id="svg" version="1.1" xmlns="http://www.w3.org/2000/svg" xmlns:xlink="http://www.w3.org/1999/xlink" width="400" height="396.7839195979899" viewBox="0, 0, 400,396.7839195979899"><g id="svgg"><path id="path0" d="M193.056 85.952 C 183.085 86.563,171.102 89.452,164.198 92.910 C 162.949 93.536,161.649 94.048,161.308 94.048 C 160.967 94.048,159.311 94.561,157.626 95.189 C 155.942 95.817,153.224 96.728,151.587 97.213 C 144.009 99.460,125.488 110.508,114.484 119.345 C 107.698 124.795,98.596 136.298,95.417 143.439 C 94.928 144.538,93.864 146.932,93.053 148.760 C 92.241 150.588,91.424 153.177,91.237 154.514 C 91.050 155.851,90.434 158.552,89.868 160.516 C 88.440 165.475,88.207 167.018,88.610 168.849 C 89.129 171.202,88.719 174.983,87.737 176.909 C 86.943 178.465,86.924 178.663,87.499 179.476 C 88.036 180.235,88.087 181.429,87.871 188.095 C 87.361 203.807,88.383 216.422,90.798 224.206 C 91.441 226.280,92.098 228.958,92.257 230.159 C 92.417 231.359,93.310 234.306,94.241 236.706 C 95.172 239.107,96.067 241.696,96.229 242.460 C 96.391 243.224,97.038 244.990,97.667 246.384 C 98.295 247.779,98.810 249.180,98.810 249.498 C 98.810 249.816,99.166 250.577,99.603 251.190 C 100.039 251.803,101.630 254.866,103.138 257.997 C 104.646 261.128,106.356 264.136,106.939 264.682 C 107.522 265.227,108.639 266.745,109.422 268.055 C 110.205 269.365,111.412 271.240,112.105 272.222 C 112.797 273.204,113.674 274.812,114.053 275.794 C 115.334 279.117,118.260 283.426,118.883 282.908 C 119.187 282.656,119.310 282.247,119.157 281.999 C 119.004 281.751,118.202 280.530,117.376 279.285 C 114.605 275.113,115.533 274.728,118.599 278.778 L 120.514 281.308 122.046 279.739 L 123.578 278.171 121.765 276.288 C 119.622 274.061,117.346 270.778,117.541 270.194 C 117.617 269.966,119.517 271.249,121.763 273.043 C 125.486 276.018,125.903 276.251,126.475 275.679 C 127.419 274.735,126.556 273.153,123.983 271.116 C 121.201 268.913,113.492 258.426,113.492 256.845 C 113.492 255.784,114.323 256.445,115.705 258.606 C 117.540 261.475,120.678 264.773,125.151 268.531 C 129.996 272.603,130.105 272.640,132.213 270.936 C 137.634 266.553,145.231 262.289,151.110 260.329 C 169.885 254.072,194.439 260.371,204.167 273.938 C 206.036 276.546,205.981 276.525,206.884 274.996 C 217.455 257.101,250.942 252.442,272.347 265.889 L 275.981 268.172 277.574 266.939 C 280.498 264.676,286.693 258.134,289.630 254.209 C 291.332 251.935,293.297 249.808,294.375 249.073 C 299.586 245.519,304.084 239.255,308.965 228.758 C 310.180 226.145,311.367 223.605,311.604 223.112 C 311.925 222.444,311.906 221.974,311.529 221.269 C 311.098 220.464,311.178 219.667,312.064 215.963 C 314.439 206.032,315.760 189.803,314.769 182.738 C 314.498 180.809,314.509 179.800,314.803 179.434 C 315.111 179.052,315.080 178.817,314.693 178.578 C 314.350 178.366,313.832 175.927,313.245 171.763 C 312.515 166.577,311.939 164.125,310.367 159.524 C 303.242 138.670,300.081 133.965,281.349 116.341 C 269.576 105.264,254.261 97.042,235.516 91.738 C 232.460 90.873,229.425 90.049,228.770 89.906 C 228.115 89.764,226.954 89.494,226.190 89.307 C 214.966 86.559,202.975 85.345,193.056 85.952 M200.595 95.073 C 200.595 95.748,200.172 95.867,196.825 96.132 C 191.501 96.553,191.292 96.353,195.833 95.182 C 200.323 94.024,200.595 94.017,200.595 95.073 M215.219 95.833 C 215.841 96.158,216.759 96.321,217.259 96.195 C 217.759 96.070,218.287 96.160,218.433 96.396 C 218.578 96.632,219.457 96.825,220.385 96.825 C 221.313 96.825,223.490 97.208,225.223 97.676 C 226.955 98.144,229.444 98.818,230.754 99.174 C 232.295 99.593,233.135 100.028,233.135 100.407 C 233.135 100.729,233.362 101.137,233.639 101.314 C 233.917 101.491,234.040 101.804,233.913 102.009 C 233.560 102.580,232.298 102.451,231.746 101.786 C 231.474 101.458,230.783 101.187,230.209 101.182 C 229.636 101.178,227.649 100.726,225.794 100.179 C 217.485 97.727,214.408 97.249,209.702 97.681 C 203.422 98.257,203.468 98.256,203.296 97.762 C 203.138 97.311,204.588 96.903,209.325 96.069 C 210.635 95.839,212.063 95.578,212.500 95.490 C 213.891 95.210,214.066 95.232,215.219 95.833 M189.620 97.852 C 188.705 98.766,183.433 100.055,181.833 99.754 C 180.102 99.430,180.530 99.086,183.929 98.068 C 189.589 96.373,191.158 96.313,189.620 97.852 M178.968 101.539 C 178.968 102.070,174.676 103.504,172.917 103.562 C 171.106 103.621,173.244 102.454,176.190 101.775 C 179.002 101.127,178.968 101.130,178.968 101.539 M165.079 102.715 C 165.079 103.032,162.856 104.136,155.853 107.297 C 154.162 108.060,152.767 108.918,152.754 109.204 C 152.729 109.772,144.212 115.404,142.832 115.765 C 141.199 116.192,142.694 114.443,145.335 112.835 C 147.059 111.786,147.601 111.282,147.107 111.186 C 146.713 111.109,145.743 111.637,144.925 112.374 C 144.115 113.104,142.696 114.234,141.772 114.886 C 140.848 115.538,140.170 116.289,140.267 116.555 C 140.363 116.821,140.243 117.161,140.001 117.311 C 139.734 117.475,139.672 117.402,139.843 117.125 C 140.396 116.230,139.572 116.685,138.544 117.842 C 137.970 118.489,135.446 120.071,132.937 121.357 C 130.427 122.643,126.957 124.713,125.226 125.956 C 120.220 129.553,111.905 133.468,111.905 132.229 C 111.905 131.147,119.818 124.650,127.778 119.197 C 136.896 112.949,137.638 112.502,144.698 108.980 C 153.012 104.833,154.115 104.374,155.121 104.637 C 155.564 104.753,157.227 104.395,158.817 103.842 C 162.968 102.398,165.079 102.018,165.079 102.715 M213.243 103.594 C 215.199 104.748,214.520 105.998,212.478 105.002 C 211.835 104.688,209.771 104.308,207.891 104.158 C 206.011 104.007,204.247 103.744,203.971 103.573 C 201.607 102.112,210.766 102.133,213.243 103.594 M185.272 107.900 C 186.203 108.490,179.125 111.079,174.953 111.676 C 173.945 111.820,171.909 112.377,170.430 112.913 C 167.298 114.049,166.656 114.127,167.519 113.264 C 169.766 111.016,183.595 106.838,185.272 107.900 M260.778 111.965 C 270.190 117.288,285.412 130.365,284.724 132.536 C 284.507 133.219,284.785 133.679,286.096 134.801 C 289.491 137.707,296.940 147.240,296.309 147.871 C 296.191 147.989,295.410 147.322,294.574 146.388 C 293.739 145.454,292.718 144.412,292.305 144.071 C 291.892 143.731,290.716 142.738,289.691 141.865 C 288.667 140.992,286.406 139.250,284.666 137.995 C 282.927 136.739,279.387 133.570,276.801 130.951 C 274.215 128.333,271.869 126.190,271.589 126.190 C 271.308 126.190,270.968 126.011,270.832 125.792 C 270.697 125.572,269.570 124.700,268.329 123.854 C 267.039 122.974,265.646 121.599,265.079 120.645 C 263.787 118.470,259.970 113.613,258.386 112.128 C 255.918 109.814,256.862 109.750,260.778 111.965 M246.876 114.848 C 248.775 115.646,251.864 117.963,251.285 118.156 C 251.018 118.245,251.636 118.884,252.657 119.576 C 254.866 121.071,255.249 121.825,253.800 121.825 C 252.136 121.825,248.791 119.795,247.590 118.056 C 246.987 117.183,245.991 115.977,245.376 115.377 C 244.091 114.123,244.667 113.920,246.876 114.848 M148.803 117.361 C 148.786 118.228,146.624 119.709,142.063 121.977 C 140.427 122.791,138.611 123.913,138.028 124.470 C 136.169 126.249,135.958 125.088,137.793 123.174 C 140.051 120.817,148.827 116.184,148.803 117.361 M254.563 123.047 C 255.979 123.707,257.445 125.227,257.049 125.623 C 256.966 125.705,256.257 125.336,255.472 124.803 C 254.301 124.007,254.004 123.938,253.820 124.416 C 253.498 125.256,252.880 125.138,251.768 124.026 C 249.601 121.860,250.982 121.376,254.563 123.047 M134.000 128.727 C 133.763 129.346,129.717 132.230,129.454 131.968 C 129.084 131.597,130.798 129.662,132.278 128.780 C 133.978 127.766,134.373 127.754,134.000 128.727 M125.794 130.992 C 125.794 131.231,125.288 131.901,124.670 132.480 C 124.052 133.058,123.433 133.978,123.294 134.524 C 122.899 136.081,120.883 138.252,116.641 141.688 C 105.019 151.100,97.474 161.641,93.133 174.531 C 91.905 178.178,91.489 178.572,91.803 175.794 C 92.984 165.322,99.733 152.561,108.811 143.631 C 116.122 136.440,125.794 129.242,125.794 130.992 M111.508 134.961 C 111.508 136.268,111.213 136.865,109.806 138.410 C 104.883 143.811,100.854 149.099,98.611 153.101 C 96.978 156.016,95.797 156.903,96.268 154.861 C 97.270 150.520,109.759 132.299,111.145 133.156 C 111.345 133.279,111.508 134.092,111.508 134.961 M274.585 136.409 C 276.624 138.520,278.687 141.806,279.763 144.654 C 280.122 145.603,280.111 145.737,279.708 145.337 C 278.489 144.131,278.086 144.910,279.287 146.150 C 280.555 147.458,280.918 148.413,280.146 148.413 C 279.504 148.413,276.790 145.284,276.744 144.490 C 276.721 144.097,275.986 142.721,275.111 141.431 C 270.612 134.798,270.317 131.989,274.585 136.409 M285.913 141.470 C 287.004 142.375,288.522 143.532,289.286 144.041 C 295.389 148.106,303.896 162.385,305.958 172.024 C 306.191 173.115,306.712 174.901,307.115 175.992 C 308.431 179.558,309.516 193.167,308.468 192.968 C 308.141 192.906,308.103 193.252,308.338 194.159 C 309.248 197.666,309.035 207.166,308.018 208.458 C 307.814 208.717,307.545 209.974,307.419 211.251 C 307.280 212.671,306.912 213.883,306.473 214.368 C 305.952 214.944,305.745 215.840,305.720 217.621 C 305.642 223.362,297.294 240.863,291.718 246.977 C 289.776 249.106,283.705 253.968,282.988 253.968 C 282.596 253.968,281.714 254.667,281.027 255.522 C 279.906 256.917,277.254 258.339,276.737 257.821 C 276.323 257.408,278.267 254.044,279.709 252.678 C 280.543 251.888,282.066 249.742,283.095 247.910 C 284.123 246.077,285.936 243.534,287.122 242.259 C 289.082 240.153,289.795 238.834,288.303 240.071 C 286.673 241.424,287.641 239.564,294.106 228.913 C 295.493 226.626,295.888 225.324,295.103 225.626 C 294.315 225.928,293.882 223.899,294.428 222.464 C 295.244 220.317,294.816 220.481,293.604 222.780 C 292.925 224.069,292.052 226.212,291.664 227.542 C 290.266 232.342,288.960 235.351,287.388 237.398 C 286.507 238.546,285.288 240.556,284.680 241.865 C 283.197 245.059,281.866 247.053,280.714 247.807 C 279.453 248.633,279.513 248.110,280.916 246.020 C 281.805 244.697,282.021 244.004,281.859 243.004 C 281.692 241.972,281.892 241.396,282.835 240.198 C 283.487 239.369,284.426 237.887,284.920 236.905 C 285.414 235.923,286.152 234.645,286.560 234.066 C 286.968 233.486,287.302 232.451,287.302 231.765 C 287.302 230.958,287.638 230.206,288.256 229.634 C 289.154 228.801,292.063 222.110,292.063 220.877 C 292.063 220.565,292.402 219.221,292.816 217.892 C 293.229 216.564,293.505 215.476,293.429 215.476 C 293.053 215.476,291.384 217.500,290.737 218.741 C 289.729 220.673,288.213 221.478,287.477 220.472 C 286.818 219.571,286.964 219.258,290.641 213.690 C 295.205 206.781,296.922 202.076,297.229 195.635 C 297.370 192.688,297.337 190.108,297.155 189.901 C 296.767 189.457,296.707 185.171,297.084 184.795 C 297.226 184.652,297.598 184.846,297.910 185.224 C 298.444 185.872,298.464 185.870,298.246 185.184 C 297.358 182.390,297.552 179.365,298.619 179.365 C 298.942 179.365,299.206 179.187,299.206 178.968 C 299.206 178.750,299.047 178.571,298.852 178.571 C 298.202 178.571,298.117 177.608,298.432 173.811 C 298.764 169.819,298.591 169.187,297.107 168.972 C 296.018 168.815,295.481 167.672,294.516 163.461 C 293.200 157.723,289.707 150.385,285.061 143.601 C 281.882 138.959,282.132 138.335,285.913 141.470 M208.390 140.096 C 255.728 144.863,278.182 200.527,247.529 237.123 C 220.521 269.368,168.483 263.026,149.693 225.198 C 129.114 183.771,162.430 135.469,208.390 140.096 M121.120 143.342 C 120.647 143.815,120.121 144.063,119.951 143.892 C 119.782 143.722,120.070 143.236,120.592 142.813 C 121.825 141.814,122.236 142.226,121.120 143.342 M118.169 146.903 C 117.851 147.382,117.365 147.849,117.089 147.941 C 116.763 148.050,116.825 147.746,117.268 147.070 C 117.642 146.499,118.128 146.032,118.348 146.032 C 118.568 146.032,118.487 146.424,118.169 146.903 M111.259 152.299 C 111.575 152.810,110.187 155.522,107.816 159.028 C 105.892 161.872,105.708 162.302,106.414 162.302 C 106.898 162.302,107.154 162.503,107.045 162.798 C 106.945 163.070,105.995 166.195,104.933 169.742 C 102.930 176.436,102.749 176.737,101.556 175.361 C 100.879 174.580,99.155 174.539,97.909 175.273 C 97.393 175.577,99.215 177.778,99.983 177.778 C 101.990 177.778,102.567 179.030,102.016 182.186 C 101.046 187.746,98.391 200.800,98.045 201.709 C 97.855 202.210,97.785 203.071,97.891 203.623 C 98.152 204.988,97.255 208.301,96.835 207.523 C 96.034 206.038,92.063 192.183,92.063 190.874 C 92.063 188.567,92.809 185.162,93.412 184.711 C 93.791 184.428,93.957 183.397,93.954 181.338 C 93.944 173.560,108.894 148.472,111.259 152.299 M284.176 156.865 C 285.769 159.091,287.490 161.984,288.000 163.294 C 288.509 164.603,289.260 166.389,289.667 167.262 C 291.308 170.784,293.304 180.304,292.630 181.396 C 291.085 183.896,288.589 178.610,285.517 166.330 C 284.952 164.071,283.800 160.857,282.957 159.187 C 281.628 156.556,280.159 152.845,280.159 152.120 C 280.159 151.541,281.502 153.127,284.176 156.865 M197.222 155.138 C 165.754 159.007,148.530 194.216,164.793 221.429 C 179.693 246.362,213.812 250.272,234.313 229.396 C 236.940 226.721,236.936 226.378,234.301 228.191 C 211.120 244.141,179.270 227.264,179.228 199.008 C 179.186 170.718,210.065 153.910,233.833 169.285 L 236.700 171.140 235.269 169.399 C 227.172 159.551,210.909 153.455,197.222 155.138 M86.140 168.506 C 85.258 169.627,85.070 170.832,85.714 171.230 C 85.933 171.365,86.112 171.152,86.113 170.758 C 86.113 170.363,86.468 169.459,86.900 168.750 C 87.843 167.204,87.301 167.030,86.140 168.506 M112.743 170.749 C 112.419 171.073,112.302 171.029,112.302 170.582 C 112.302 169.793,112.835 169.260,113.032 169.851 C 113.116 170.102,112.986 170.506,112.743 170.749 M111.905 173.432 C 111.905 175.200,110.900 177.543,110.301 177.172 C 109.683 176.790,109.867 174.222,110.601 172.978 C 111.532 171.402,111.905 171.532,111.905 173.432 M206.298 177.599 C 206.270 179.553,206.136 183.824,206.000 187.091 L 205.754 193.032 197.439 195.724 C 192.866 197.205,188.986 198.554,188.818 198.722 C 188.649 198.890,192.433 200.330,197.225 201.922 L 205.938 204.817 206.045 214.355 L 206.151 223.893 211.697 216.312 C 214.747 212.142,217.356 208.730,217.493 208.730 C 217.631 208.730,221.554 209.983,226.212 211.515 C 230.869 213.047,234.809 214.252,234.967 214.193 C 235.219 214.100,233.780 212.019,226.319 201.680 C 224.167 198.698,223.786 199.759,230.114 191.102 C 232.974 187.191,235.246 183.923,235.163 183.840 C 235.081 183.758,233.608 184.143,231.892 184.696 C 223.811 187.300,218.784 188.856,218.100 188.967 C 217.351 189.087,216.257 187.721,209.453 178.175 C 208.131 176.319,206.892 174.632,206.699 174.425 C 206.495 174.205,206.328 175.526,206.298 177.599 M109.739 177.924 C 109.921 178.899,109.748 179.734,109.101 181.000 C 108.613 181.956,107.431 184.861,106.477 187.455 C 104.422 193.038,103.995 193.897,103.987 192.460 C 103.970 189.228,108.079 176.587,109.146 176.587 C 109.334 176.587,109.601 177.189,109.739 177.924 M109.696 188.294 C 109.536 189.146,109.592 189.683,109.842 189.683 C 110.510 189.683,110.834 192.687,110.277 193.720 C 109.964 194.301,109.815 195.896,109.875 198.027 L 109.969 201.410 108.522 201.934 C 107.111 202.444,107.095 202.471,107.902 203.037 C 108.358 203.356,108.730 204.042,108.730 204.563 C 108.730 205.083,108.884 205.604,109.072 205.720 C 109.260 205.836,109.517 207.052,109.644 208.422 C 109.771 209.792,110.149 213.234,110.485 216.071 C 111.154 221.723,111.275 226.112,110.783 226.886 C 109.970 228.167,106.299 222.244,105.557 218.452 C 105.300 217.143,104.648 214.332,104.108 212.206 C 102.824 207.157,103.307 202.778,105.149 202.778 C 106.133 202.778,106.174 202.432,105.267 201.769 C 104.411 201.143,105.072 197.280,106.324 195.585 C 106.783 194.964,107.006 194.204,106.876 193.707 C 106.709 193.068,106.901 192.778,107.694 192.477 C 108.701 192.094,109.265 190.079,108.365 190.079 C 108.165 190.079,108.281 189.365,108.624 188.492 C 109.393 186.535,110.049 186.413,109.696 188.294 M298.902 188.492 C 298.902 189.256,298.983 189.568,299.083 189.187 C 299.183 188.805,299.183 188.180,299.083 187.798 C 298.983 187.416,298.902 187.728,298.902 188.492 M116.757 193.056 C 116.865 193.710,116.824 194.692,116.667 195.238 L 116.381 196.230 115.902 195.044 C 115.404 193.808,115.686 190.899,116.245 191.516 C 116.419 191.708,116.650 192.401,116.757 193.056 M102.815 198.931 C 102.501 199.245,102.381 199.142,102.381 198.558 C 102.381 197.509,102.936 196.952,103.113 197.824 C 103.188 198.194,103.054 198.692,102.815 198.931 M116.270 199.291 C 116.270 200.806,116.211 200.905,115.651 200.345 C 115.234 199.927,115.119 199.385,115.298 198.673 C 115.703 197.059,116.270 197.420,116.270 199.291 M112.726 231.900 C 115.292 235.956,116.196 238.492,115.074 238.492 C 114.535 238.492,112.123 234.693,110.036 230.556 C 106.859 224.255,108.364 225.007,112.726 231.900 M281.347 241.964 C 281.344 242.523,279.437 244.644,279.173 244.382 C 278.760 243.973,280.112 241.667,280.764 241.667 C 281.086 241.667,281.348 241.801,281.347 241.964 M105.540 245.710 C 105.985 246.187,106.349 246.696,106.349 246.840 C 106.349 247.194,111.390 256.289,113.458 259.667 C 116.177 264.109,114.213 263.383,110.558 258.595 C 105.192 251.564,101.024 240.862,105.540 245.710 M278.044 246.694 C 276.948 248.814,274.322 251.437,273.802 250.932 C 273.165 250.313,274.886 247.779,276.888 246.390 C 278.658 245.161,278.816 245.202,278.044 246.694 M124.750 250.013 C 125.979 251.340,126.984 252.786,126.984 253.226 C 126.984 253.692,127.918 254.881,129.221 256.071 C 131.945 258.561,135.400 263.038,135.042 263.616 C 134.684 264.196,126.091 255.226,124.754 252.877 C 124.164 251.840,123.201 250.456,122.615 249.802 C 121.320 248.356,120.238 246.768,120.238 246.313 C 120.238 245.717,122.457 247.536,124.750 250.013 M101.817 248.563 C 101.933 249.848,101.867 250.000,101.373 249.590 C 100.693 249.025,100.575 246.686,101.238 246.907 C 101.482 246.989,101.743 247.734,101.817 248.563 M279.365 250.770 C 279.365 251.238,278.591 251.739,278.307 251.455 C 278.023 251.171,278.523 250.397,278.992 250.397 C 279.197 250.397,279.365 250.565,279.365 250.770 M203.506 309.420 C 201.818 309.509,200.689 309.767,200.382 310.136 C 199.966 310.638,200.702 310.714,205.965 310.714 C 212.003 310.714,212.025 310.711,211.310 309.921 C 210.558 309.090,210.237 309.069,203.506 309.420 " stroke="none" fill="#e31c25" fill-rule="evenodd"></path><path id="path1" d="M156.944 258.720 C 148.130 260.630,134.998 267.438,130.159 272.606 C 130.050 272.722,128.712 273.889,127.185 275.198 C 125.659 276.508,121.812 280.079,118.637 283.135 C 102.874 298.302,95.143 297.075,77.562 276.619 C 73.520 271.917,73.483 271.930,74.191 277.741 C 78.622 314.080,102.693 335.138,138.492 333.992 C 163.206 333.201,192.149 320.971,203.342 306.590 C 206.177 302.947,205.791 302.967,208.289 306.327 C 217.423 318.611,243.401 330.919,265.698 333.527 C 305.444 338.176,332.897 316.759,337.712 277.344 C 338.409 271.644,338.430 271.642,333.135 277.841 C 315.896 298.025,308.713 298.380,289.656 279.985 C 268.888 259.938,252.227 254.232,230.522 259.730 C 220.542 262.259,210.625 268.663,206.884 274.996 C 205.981 276.525,206.036 276.546,204.167 273.938 C 195.734 262.176,173.724 255.083,156.944 258.720 " stroke="none" fill="#040404" fill-rule="evenodd"></path><path id="path2" d="M0.000 198.413 L 0.000 396.825 200.000 396.825 L 400.000 396.825 400.000 198.413 L 400.000 0.000 200.000 0.000 L 0.000 0.000 0.000 198.413 M208.405 85.906 C 216.005 86.671,231.917 89.997,237.698 92.029 C 238.244 92.221,240.030 92.779,241.667 93.269 C 254.582 97.139,270.701 106.081,279.597 114.313 C 300.435 133.593,303.004 137.314,310.445 158.987 C 312.242 164.222,312.801 166.511,313.494 171.487 C 314.195 176.522,314.486 177.702,315.167 178.286 C 315.908 178.922,315.928 179.041,315.361 179.477 C 314.811 179.899,314.784 180.415,315.147 183.532 C 316.038 191.185,314.795 205.919,312.438 215.632 C 311.529 219.376,311.455 220.134,311.878 221.306 C 312.284 222.429,312.267 222.811,311.777 223.559 C 311.452 224.055,310.257 226.501,309.121 228.996 C 304.716 238.671,300.111 245.261,295.414 248.613 C 293.638 249.880,291.965 251.620,290.009 254.234 C 287.064 258.169,281.785 263.781,278.391 266.585 L 276.424 268.210 277.595 269.125 C 281.403 272.101,286.334 276.407,291.892 281.608 C 309.123 297.736,316.352 297.006,333.135 277.440 C 338.641 271.020,338.613 271.038,338.275 274.306 C 334.044 315.176,309.045 336.832,269.297 334.059 C 250.307 332.734,225.644 323.236,213.889 312.721 L 212.103 311.124 206.012 311.117 L 199.920 311.111 196.885 313.559 C 170.544 334.801,127.116 340.594,102.617 326.133 C 85.695 316.145,73.413 293.953,73.413 273.366 C 73.413 271.234,73.357 271.190,78.877 277.610 C 94.050 295.255,103.190 297.253,115.654 285.651 L 117.998 283.469 116.171 280.524 C 115.167 278.905,114.031 276.789,113.649 275.823 C 112.820 273.729,108.516 267.026,106.769 265.108 C 105.720 263.956,98.413 249.912,98.413 249.049 C 98.413 248.889,97.980 247.812,97.450 246.654 C 96.921 245.497,96.285 243.767,96.038 242.811 C 95.790 241.854,94.818 239.018,93.877 236.508 C 92.936 233.998,92.052 231.045,91.914 229.945 C 91.775 228.845,91.054 225.880,90.311 223.356 C 88.021 215.574,87.131 203.118,87.735 187.302 C 87.941 181.908,87.884 180.997,87.277 179.903 C 86.602 178.687,86.609 178.602,87.555 176.626 C 88.374 174.915,88.507 174.118,88.410 171.525 C 88.275 167.957,87.529 167.372,86.615 170.117 C 86.013 171.921,84.921 172.119,84.921 170.424 C 84.921 169.362,86.709 167.063,87.535 167.063 C 87.874 167.063,88.095 166.655,88.095 166.032 C 88.095 165.465,88.334 164.438,88.626 163.750 C 89.334 162.085,90.489 157.494,90.918 154.647 C 92.316 145.351,103.199 128.449,113.095 120.204 C 114.514 119.023,115.764 117.959,115.873 117.841 C 119.703 113.707,144.044 99.244,150.595 97.210 C 157.369 95.106,163.049 93.141,164.881 92.266 C 166.983 91.262,168.052 90.888,174.461 88.914 C 180.266 87.126,183.248 86.558,189.286 86.088 C 192.232 85.858,194.821 85.605,195.040 85.525 C 196.015 85.169,203.082 85.370,208.405 85.906 M198.016 94.999 L 196.230 95.426 198.158 95.554 C 200.145 95.686,200.817 95.467,200.172 94.898 C 199.968 94.719,198.998 94.764,198.016 94.999 M212.269 95.799 C 212.178 95.889,210.317 96.263,208.135 96.629 C 205.952 96.996,203.988 97.479,203.770 97.704 C 203.499 97.983,203.850 98.027,204.879 97.844 C 211.478 96.670,214.874 96.894,222.817 99.026 C 229.938 100.938,230.920 101.130,232.009 100.823 L 233.135 100.506 232.143 100.097 C 229.311 98.928,223.670 97.509,221.131 97.325 C 219.549 97.211,218.254 96.963,218.254 96.773 C 218.254 96.584,217.640 96.429,216.888 96.429 C 216.137 96.429,215.413 96.250,215.278 96.032 C 215.042 95.650,212.609 95.462,212.269 95.799 M188.690 97.120 C 186.903 97.455,181.918 98.960,181.567 99.270 C 180.866 99.890,183.819 99.610,186.548 98.797 C 189.501 97.918,191.096 96.669,188.690 97.120 M175.198 102.381 C 174.100 102.660,174.085 102.687,175.000 102.725 C 175.546 102.747,176.260 102.593,176.587 102.381 C 177.263 101.944,176.914 101.944,175.198 102.381 M159.524 104.004 C 157.669 104.648,155.723 105.102,155.201 105.013 C 150.485 104.205,110.493 129.673,112.821 132.001 C 113.272 132.452,121.381 128.267,125.164 125.632 C 127.147 124.250,130.771 122.116,133.217 120.890 C 135.664 119.664,137.861 118.295,138.100 117.848 C 139.089 116.000,147.629 109.799,148.284 110.453 C 148.681 110.850,147.939 111.544,145.404 113.145 C 143.031 114.644,141.758 116.092,143.750 115.027 C 146.081 113.781,152.441 109.360,152.759 108.765 C 152.957 108.396,154.501 107.479,156.190 106.726 C 164.860 102.864,166.378 101.624,159.524 104.004 M204.577 103.196 C 204.676 103.357,206.232 103.613,208.033 103.765 C 209.835 103.917,211.822 104.290,212.449 104.594 C 214.217 105.451,214.602 104.743,212.857 103.844 C 211.321 103.052,204.141 102.490,204.577 103.196 M176.984 109.568 C 174.692 110.452,171.874 111.541,170.720 111.989 C 167.965 113.057,168.275 113.307,171.116 112.308 C 172.332 111.881,174.105 111.421,175.057 111.286 C 176.939 111.020,183.564 108.953,184.524 108.333 C 186.313 107.178,180.868 108.069,176.984 109.568 M258.333 111.430 C 258.333 111.606,258.978 112.364,259.766 113.117 C 260.968 114.264,263.533 117.650,265.581 120.793 C 266.849 122.741,271.428 126.040,271.870 125.325 C 272.036 125.057,272.376 125.334,272.739 126.033 C 273.688 127.862,282.416 136.112,286.111 138.675 C 289.631 141.115,290.223 141.607,293.403 144.728 C 295.181 146.473,295.278 146.520,294.594 145.311 C 293.440 143.272,287.537 136.364,285.717 134.923 C 284.343 133.835,284.122 133.465,284.317 132.578 C 284.808 130.344,271.024 118.241,262.171 113.133 C 258.450 110.986,258.333 110.934,258.333 111.430 M246.049 115.543 C 246.516 116.052,247.288 117.093,247.766 117.857 C 248.745 119.425,252.316 121.552,253.640 121.356 C 254.343 121.253,254.059 120.925,252.049 119.518 C 249.662 117.848,248.979 117.136,250.219 117.612 C 250.568 117.746,250.731 117.680,250.595 117.460 C 250.285 116.959,247.290 115.241,246.112 114.889 L 245.200 114.617 246.049 115.543 M143.953 119.379 C 137.970 122.573,135.919 124.776,141.596 121.910 C 145.987 119.694,149.226 117.474,148.016 117.510 C 147.688 117.520,145.860 118.361,143.953 119.379 M251.556 123.368 C 252.458 124.636,253.852 125.112,253.428 124.008 C 253.121 123.208,253.417 123.256,255.112 124.280 L 256.548 125.147 255.754 124.235 C 254.902 123.255,254.147 122.889,252.025 122.427 L 250.676 122.133 251.556 123.368 M131.548 129.762 C 130.079 131.295,130.768 131.306,132.555 129.778 C 133.445 129.017,133.710 128.598,133.308 128.588 C 132.967 128.579,132.175 129.107,131.548 129.762 M122.154 132.903 C 118.275 135.389,111.797 140.966,107.042 145.916 C 99.682 153.577,93.343 165.965,92.261 174.802 L 92.018 176.786 92.970 174.206 C 98.198 160.049,104.232 151.565,116.155 141.610 C 121.347 137.275,123.022 135.428,123.012 134.047 C 123.010 133.764,123.590 133.054,124.299 132.471 C 126.521 130.645,125.292 130.893,122.154 132.903 M107.832 136.806 C 106.427 138.497,104.237 141.488,102.965 143.452 C 101.693 145.417,100.247 147.649,99.751 148.413 C 98.561 150.248,96.286 155.149,96.517 155.380 C 96.617 155.480,97.621 154.053,98.748 152.209 C 101.111 148.342,105.894 142.084,108.981 138.819 C 110.739 136.960,111.111 136.319,111.111 135.149 C 111.111 133.137,110.711 133.339,107.832 136.806 M271.825 134.958 C 271.825 135.568,273.979 139.383,275.715 141.848 C 276.477 142.929,277.119 144.129,277.141 144.514 C 277.187 145.298,279.736 148.174,280.079 147.831 C 280.200 147.710,279.821 147.112,279.237 146.502 C 278.060 145.273,277.867 144.444,278.757 144.444 C 279.478 144.444,279.271 143.849,277.451 140.675 C 275.513 137.295,271.825 133.548,271.825 134.958 M196.032 140.503 C 141.455 147.348,124.642 217.361,170.241 247.899 C 201.840 269.061,246.109 253.919,258.087 217.852 C 271.665 176.970,238.169 135.219,196.032 140.503 M283.796 140.899 C 284.154 141.459,285.420 143.424,286.609 145.264 C 291.024 152.097,293.818 158.322,295.056 164.087 C 295.923 168.120,296.128 168.492,297.664 168.799 L 298.928 169.052 298.700 173.369 C 298.521 176.777,298.594 177.860,299.047 178.507 C 299.565 179.246,299.543 179.370,298.819 179.757 C 297.762 180.323,297.757 182.436,298.804 185.778 C 299.719 188.696,299.829 190.220,299.107 189.981 C 298.834 189.890,298.509 189.068,298.385 188.154 C 298.028 185.533,297.222 185.116,297.222 187.553 C 297.222 188.651,297.350 189.678,297.507 189.835 C 297.664 189.992,297.736 192.275,297.668 194.910 C 297.491 201.782,295.991 205.838,290.291 214.863 C 287.574 219.164,287.352 219.664,287.917 220.220 C 288.658 220.950,290.873 218.877,290.873 217.454 C 290.873 217.021,291.136 216.667,291.458 216.667 C 291.780 216.667,292.320 216.131,292.659 215.476 C 293.177 214.475,294.048 213.843,294.048 214.468 C 294.048 216.965,290.059 228.282,288.650 229.784 C 288.115 230.353,287.698 231.283,287.698 231.905 C 287.698 232.514,287.364 233.486,286.956 234.066 C 286.547 234.645,285.753 236.031,285.192 237.146 C 284.630 238.261,283.715 239.715,283.157 240.378 C 282.422 241.251,282.143 242.041,282.143 243.249 C 282.143 244.314,281.857 245.278,281.349 245.923 C 280.314 247.240,280.327 247.949,281.370 247.005 C 281.817 246.600,282.923 244.742,283.827 242.876 C 284.731 241.011,286.173 238.546,287.031 237.398 C 288.566 235.348,289.884 232.286,291.258 227.579 C 292.001 225.033,294.948 218.877,295.624 218.459 C 296.227 218.086,296.125 218.794,295.238 221.127 C 294.024 224.321,294.394 226.082,295.952 224.524 C 297.192 223.284,295.045 228.832,293.696 230.353 C 293.307 230.792,292.129 232.669,291.079 234.524 C 290.028 236.379,288.926 238.293,288.630 238.778 C 288.173 239.526,288.176 239.627,288.649 239.445 C 290.007 238.924,289.602 240.264,287.883 241.982 C 285.714 244.150,284.264 246.178,282.772 249.133 C 282.186 250.292,280.918 251.997,279.954 252.921 C 278.990 253.844,277.931 255.248,277.600 256.040 L 276.998 257.480 278.281 257.125 C 278.986 256.929,280.196 256.046,280.969 255.163 C 281.742 254.280,282.783 253.479,283.282 253.383 C 284.394 253.169,290.448 248.084,292.232 245.866 C 298.246 238.387,306.931 219.391,305.151 217.611 C 304.875 217.335,305.129 216.487,305.944 214.960 C 306.689 213.565,307.143 212.127,307.143 211.167 C 307.143 210.317,307.434 208.929,307.790 208.084 C 308.775 205.748,308.986 198.570,308.185 194.700 C 307.425 191.030,307.445 191.270,307.907 191.270 C 308.110 191.270,308.357 191.582,308.457 191.964 C 308.803 193.289,308.720 188.667,308.315 184.049 C 308.040 180.918,307.525 178.216,306.732 175.749 C 306.085 173.736,305.556 171.780,305.556 171.401 C 305.556 171.023,304.777 168.776,303.825 166.408 C 299.282 155.106,294.108 147.578,288.095 143.519 C 286.895 142.709,285.290 141.559,284.529 140.964 L 283.145 139.881 283.796 140.899 M107.433 155.286 C 99.007 165.926,93.600 176.882,94.211 182.078 C 94.443 184.053,94.377 184.373,93.625 184.940 C 91.656 186.426,92.007 191.461,94.666 199.859 C 96.936 207.027,98.070 208.667,97.509 203.968 C 97.418 203.204,97.566 201.939,97.837 201.157 C 98.557 199.084,101.982 181.308,101.984 179.640 C 101.984 179.175,101.374 178.654,100.246 178.155 C 98.648 177.448,96.886 175.601,97.358 175.129 C 98.285 174.202,101.037 174.212,101.840 175.145 L 102.690 176.132 103.330 173.880 C 103.681 172.641,104.579 169.611,105.324 167.147 C 106.568 163.034,106.616 162.686,105.919 162.907 C 104.701 163.294,105.005 162.520,107.519 158.823 C 112.096 152.096,112.032 149.480,107.433 155.286 M281.504 155.281 C 282.023 156.657,282.992 158.755,283.658 159.943 C 284.349 161.175,285.406 164.235,286.116 167.063 C 288.783 177.680,290.885 182.716,292.118 181.445 C 292.900 180.638,290.500 168.756,289.244 167.219 C 289.046 166.977,288.537 165.769,288.113 164.536 C 287.237 161.989,286.472 160.667,283.201 156.047 C 280.421 152.120,280.293 152.062,281.504 155.281 M208.539 154.945 C 218.451 156.354,226.794 160.486,233.762 167.437 C 238.790 172.452,239.377 173.823,235.119 170.606 C 218.117 157.760,192.192 164.176,182.884 183.532 C 167.140 216.273,205.486 248.208,235.218 227.116 C 238.536 224.762,238.345 225.523,234.643 229.397 C 211.231 253.903,169.787 244.137,160.176 211.851 C 150.923 180.762,176.710 150.419,208.539 154.945 M110.512 173.956 C 110.139 174.850,110.046 175.667,110.255 176.231 C 110.629 177.243,110.911 176.810,111.512 174.303 C 111.944 172.505,111.223 172.255,110.512 173.956 M207.107 174.306 C 207.931 175.639,215.726 186.539,216.761 187.804 L 217.659 188.902 221.230 187.742 C 237.404 182.487,237.148 182.519,234.240 186.111 C 233.016 187.624,225.000 198.810,225.000 199.005 C 225.000 199.127,227.433 202.622,230.407 206.772 C 233.381 210.923,235.704 214.428,235.570 214.562 C 235.436 214.696,231.390 213.515,226.579 211.938 C 221.767 210.360,217.678 209.127,217.492 209.198 C 217.158 209.324,213.605 214.034,208.790 220.734 C 207.418 222.644,206.132 224.206,205.932 224.206 C 205.726 224.206,205.524 220.067,205.463 214.616 L 205.357 205.026 196.528 202.083 C 191.672 200.465,187.698 198.981,187.698 198.787 C 187.698 198.593,191.716 197.143,196.627 195.565 L 205.556 192.696 205.595 191.289 C 205.616 190.514,205.672 189.524,205.720 189.087 C 205.767 188.651,205.839 184.945,205.879 180.853 C 205.953 173.380,206.088 172.657,207.107 174.306 M107.602 180.460 C 105.963 184.606,104.663 189.090,104.847 189.961 C 104.933 190.363,105.402 189.463,105.923 187.897 C 106.431 186.369,107.449 183.799,108.185 182.186 C 109.546 179.205,109.805 177.999,109.170 177.606 C 108.976 177.486,108.270 178.770,107.602 180.460 M109.053 191.369 C 108.957 192.366,108.722 192.688,108.018 192.788 C 107.321 192.887,107.165 193.096,107.351 193.683 C 107.500 194.152,107.285 194.841,106.796 195.463 C 104.863 197.921,104.850 201.984,106.776 201.984 C 109.152 201.984,109.629 201.238,109.430 197.832 C 109.290 195.449,109.390 194.418,109.825 193.752 C 110.216 193.153,110.321 192.405,110.146 191.470 C 109.818 189.724,109.217 189.668,109.053 191.369 M115.879 193.330 C 115.876 194.135,116.052 194.905,116.270 195.040 C 116.782 195.356,116.782 193.252,116.270 192.460 C 115.983 192.017,115.884 192.238,115.879 193.330 M104.639 203.063 C 103.157 205.540,103.399 207.906,106.397 220.272 C 106.836 222.085,109.803 226.707,110.322 226.386 C 110.884 226.039,110.792 221.592,110.107 216.071 C 109.783 213.452,109.403 210.098,109.263 208.618 C 109.124 207.138,108.858 205.833,108.672 205.718 C 108.486 205.603,108.333 205.083,108.333 204.563 C 108.333 204.044,108.199 203.542,108.036 203.449 C 107.364 203.065,104.810 202.776,104.639 203.063 M109.318 228.175 C 109.661 229.386,113.227 235.932,114.291 237.302 L 115.062 238.294 115.071 237.276 C 115.076 236.693,113.961 234.489,112.460 232.117 C 109.512 227.457,108.897 226.686,109.318 228.175 M280.260 242.163 C 279.154 243.560,278.889 244.677,279.936 243.529 C 280.495 242.917,280.952 242.247,280.952 242.041 C 280.952 241.532,280.729 241.571,280.260 242.163 M104.433 246.726 C 105.541 250.844,110.750 259.181,113.669 261.508 C 114.565 262.222,114.240 261.522,112.112 258.148 C 111.419 257.049,109.527 253.696,107.906 250.696 C 104.967 245.253,103.623 243.718,104.433 246.726 M276.499 247.046 C 275.072 247.981,273.515 250.234,273.976 250.696 C 274.100 250.820,274.530 250.624,274.932 250.260 C 275.629 249.630,278.358 246.006,278.100 246.055 C 278.032 246.068,277.311 246.514,276.499 247.046 M121.072 247.520 C 121.366 247.902,122.183 248.876,122.889 249.684 C 123.595 250.493,124.518 251.832,124.942 252.661 C 125.762 254.265,133.692 262.869,134.035 262.526 C 134.392 262.169,131.051 258.067,128.984 256.324 C 127.665 255.212,126.856 254.164,126.600 253.235 C 126.359 252.362,125.271 250.879,123.732 249.327 C 121.428 247.002,119.848 245.929,121.072 247.520 M114.938 259.028 C 117.236 263.028,120.913 267.798,124.217 271.061 L 127.661 274.464 128.784 273.499 C 129.781 272.641,129.832 272.491,129.237 272.158 C 126.497 270.625,118.412 262.967,116.003 259.623 C 113.875 256.669,113.446 256.429,114.938 259.028 M118.595 271.925 C 121.426 276.401,123.554 278.210,124.672 277.091 C 125.452 276.311,125.440 276.296,121.899 273.471 C 117.918 270.296,117.417 270.062,118.595 271.925 M116.289 277.035 C 116.681 277.780,118.767 281.019,119.284 281.687 C 119.343 281.763,119.584 281.706,119.820 281.561 C 120.086 281.396,119.538 280.392,118.380 278.917 C 116.326 276.303,115.523 275.581,116.289 277.035 M205.002 304.798 C 204.604 305.472,203.738 306.639,203.078 307.390 C 201.505 309.182,201.654 309.256,206.165 308.917 C 208.276 308.759,209.839 308.518,209.638 308.382 C 209.437 308.246,208.504 307.108,207.565 305.853 C 205.550 303.162,205.887 303.300,205.002 304.798 " stroke="none" fill="#fbfafa" fill-rule="evenodd"></path><path id="path3" d="M197.535 85.612 C 198.908 85.689,201.051 85.689,202.297 85.610 C 203.544 85.532,202.421 85.468,199.802 85.469 C 197.183 85.470,196.163 85.534,197.535 85.612 M191.766 85.988 C 192.148 86.088,192.773 86.088,193.155 85.988 C 193.537 85.888,193.224 85.806,192.460 85.806 C 191.696 85.806,191.384 85.888,191.766 85.988 M206.448 85.988 C 206.830 86.088,207.455 86.088,207.837 85.988 C 208.219 85.888,207.907 85.806,207.143 85.806 C 206.379 85.806,206.066 85.888,206.448 85.988 M186.413 86.392 C 186.907 86.487,187.621 86.483,188.001 86.384 C 188.380 86.284,187.976 86.207,187.103 86.211 C 186.230 86.216,185.920 86.297,186.413 86.392 M210.813 86.385 C 211.195 86.484,211.820 86.484,212.202 86.385 C 212.584 86.285,212.272 86.203,211.508 86.203 C 210.744 86.203,210.432 86.285,210.813 86.385 M200.253 95.038 C 200.445 95.539,199.959 95.625,197.165 95.584 C 195.341 95.557,193.403 95.724,192.857 95.955 C 191.906 96.356,198.968 96.222,200.298 95.812 C 200.878 95.634,200.975 94.444,200.409 94.444 C 200.198 94.444,200.127 94.712,200.253 95.038 M248.810 96.230 C 249.355 96.542,249.980 96.797,250.198 96.797 C 250.417 96.797,250.149 96.542,249.603 96.230 C 249.058 95.918,248.433 95.663,248.214 95.663 C 247.996 95.663,248.264 95.918,248.810 96.230 M188.492 96.878 C 187.511 97.204,187.512 97.206,188.591 97.071 C 189.826 96.918,190.027 97.379,188.988 97.984 C 188.606 98.207,188.495 98.394,188.741 98.401 C 189.416 98.419,190.264 97.241,189.844 96.869 C 189.646 96.693,189.038 96.697,188.492 96.878 M219.352 97.113 C 220.066 97.201,221.137 97.199,221.733 97.109 C 222.330 97.018,221.746 96.946,220.437 96.948 C 219.127 96.951,218.639 97.025,219.352 97.113 M203.274 97.718 C 203.364 97.991,203.740 98.241,204.108 98.273 C 204.626 98.319,204.640 98.289,204.170 98.144 C 203.835 98.040,203.664 97.791,203.788 97.589 C 203.913 97.387,203.811 97.222,203.562 97.222 C 203.312 97.222,203.183 97.445,203.274 97.718 M209.028 97.509 C 209.737 97.597,210.898 97.597,211.607 97.509 C 212.316 97.421,211.736 97.349,210.317 97.349 C 208.899 97.349,208.318 97.421,209.028 97.509 M223.810 97.619 C 225.166 98.054,226.210 98.054,225.198 97.619 C 224.762 97.431,224.048 97.283,223.611 97.290 C 222.973 97.299,223.012 97.364,223.810 97.619 M182.738 98.413 C 182.238 98.628,182.164 98.754,182.540 98.754 C 182.867 98.754,183.492 98.600,183.929 98.413 C 184.429 98.198,184.502 98.072,184.127 98.072 C 183.800 98.072,183.175 98.225,182.738 98.413 M228.571 98.849 C 229.990 99.304,231.657 99.928,232.275 100.236 C 233.119 100.655,233.359 100.671,233.235 100.300 C 233.144 100.028,231.924 99.494,230.523 99.115 C 226.607 98.054,225.714 97.933,228.571 98.849 M185.119 99.206 C 184.619 99.421,184.545 99.547,184.921 99.547 C 185.248 99.547,185.873 99.394,186.310 99.206 C 186.810 98.991,186.883 98.865,186.508 98.865 C 186.181 98.865,185.556 99.019,185.119 99.206 M222.421 99.206 C 222.857 99.394,223.482 99.547,223.810 99.547 C 224.185 99.547,224.111 99.421,223.611 99.206 C 223.175 99.019,222.550 98.865,222.222 98.865 C 221.847 98.865,221.920 98.991,222.421 99.206 M255.589 98.957 C 255.997 99.323,258.333 100.397,258.333 100.219 C 258.333 99.990,256.133 98.810,255.708 98.810 C 255.551 98.810,255.498 98.876,255.589 98.957 M142.748 100.663 C 141.270 101.452,140.121 102.158,140.195 102.232 C 140.357 102.394,145.635 99.625,145.635 99.378 C 145.635 99.122,145.647 99.117,142.748 100.663 M231.439 101.261 C 231.706 102.064,232.787 102.526,233.577 102.176 C 234.272 101.868,234.261 101.833,233.433 101.688 C 232.941 101.602,232.540 101.366,232.540 101.163 C 232.540 100.960,232.257 100.794,231.911 100.794 C 231.566 100.794,231.353 101.004,231.439 101.261 M259.524 101.012 C 259.524 101.121,259.944 101.370,260.458 101.565 C 263.703 102.799,274.890 110.393,279.194 114.283 L 281.944 116.770 279.137 114.004 C 274.545 109.481,259.524 99.531,259.524 101.012 M176.190 101.775 C 174.990 102.051,173.695 102.409,173.313 102.570 C 172.449 102.934,172.385 103.746,173.247 103.415 C 173.592 103.283,174.351 103.157,174.933 103.135 L 175.992 103.095 175.000 102.748 C 174.135 102.445,174.185 102.418,175.395 102.535 C 176.914 102.682,178.968 102.115,178.968 101.548 C 178.968 101.129,179.007 101.126,176.190 101.775 M134.303 105.378 C 131.478 107.026,128.988 108.576,128.770 108.823 C 128.552 109.070,128.819 109.005,129.365 108.679 C 129.911 108.352,132.455 106.864,135.020 105.372 C 139.119 102.988,140.040 102.381,139.560 102.381 C 139.493 102.381,137.127 103.729,134.303 105.378 M163.635 102.727 C 164.360 103.012,162.386 104.085,157.380 106.125 C 156.528 106.472,155.923 106.849,156.037 106.963 C 156.322 107.248,165.079 103.138,165.079 102.719 C 165.079 102.533,164.588 102.394,163.988 102.409 C 163.108 102.431,163.040 102.493,163.635 102.727 M203.742 102.822 C 203.294 103.548,204.290 103.869,207.891 104.158 C 209.771 104.308,211.835 104.688,212.478 105.002 C 213.493 105.497,213.721 105.497,214.216 105.001 C 214.786 104.432,211.662 102.379,210.231 102.382 C 209.951 102.383,210.787 102.885,212.087 103.498 C 213.388 104.111,214.258 104.732,214.021 104.879 C 213.783 105.026,213.076 104.898,212.449 104.594 C 211.822 104.290,209.835 103.917,208.033 103.765 C 206.232 103.613,204.655 103.322,204.529 103.119 C 204.392 102.897,205.387 102.827,207.011 102.944 C 209.335 103.112,209.467 103.090,207.937 102.790 C 205.427 102.298,204.060 102.308,203.742 102.822 M158.730 103.826 C 157.312 104.362,155.704 104.716,155.159 104.612 C 154.254 104.440,146.966 107.491,144.654 109.010 C 143.115 110.020,144.433 109.489,149.226 107.165 C 152.596 105.531,154.408 104.864,155.121 104.992 C 155.693 105.095,157.650 104.657,159.524 104.005 C 161.379 103.360,162.540 102.837,162.103 102.843 C 161.667 102.848,160.149 103.291,158.730 103.826 M153.869 107.767 C 152.330 108.601,152.505 108.889,154.067 108.095 C 155.563 107.334,155.828 107.137,155.324 107.159 C 155.124 107.167,154.469 107.441,153.869 107.767 M176.786 109.313 C 174.385 110.275,172.589 111.073,172.795 111.087 C 173.001 111.100,174.997 110.397,177.230 109.524 C 179.935 108.466,181.917 107.937,183.171 107.937 C 185.612 107.937,185.294 108.187,180.857 109.761 C 178.836 110.478,177.372 111.075,177.604 111.088 C 178.092 111.115,184.690 108.920,185.354 108.509 C 186.114 108.039,184.874 107.551,182.937 107.558 C 181.762 107.562,179.657 108.162,176.786 109.313 M125.062 111.121 C 121.307 113.759,121.409 114.028,125.198 111.482 C 127.811 109.727,128.535 109.127,128.038 109.127 C 127.964 109.127,126.624 110.024,125.062 111.121 M151.389 110.125 L 150.198 111.120 151.486 110.421 C 152.194 110.037,152.774 109.588,152.775 109.425 C 152.779 108.991,152.698 109.032,151.389 110.125 M141.465 110.562 C 140.376 111.133,139.306 111.778,139.087 111.995 C 138.869 112.213,139.807 111.817,141.171 111.115 C 142.535 110.414,143.651 109.769,143.651 109.682 C 143.651 109.429,143.548 109.470,141.465 110.562 M257.143 110.579 C 257.143 110.723,258.083 111.839,259.231 113.059 C 260.380 114.279,261.918 115.992,262.649 116.865 L 263.980 118.452 262.883 116.865 C 262.280 115.992,260.988 114.447,260.013 113.431 C 259.038 112.415,258.349 111.407,258.483 111.191 C 258.616 110.974,258.444 110.689,258.100 110.557 C 257.304 110.252,257.143 110.256,257.143 110.579 M142.238 114.053 C 140.261 115.659,138.322 117.462,137.930 118.061 C 137.537 118.661,138.221 118.145,139.450 116.917 C 141.631 114.736,142.776 114.081,142.317 115.278 C 142.018 116.056,142.889 116.044,143.873 115.256 C 144.612 114.663,144.607 114.656,143.750 115.071 C 142.316 115.766,142.704 114.842,144.246 113.889 C 145.753 112.957,146.041 112.577,144.940 112.973 C 144.415 113.162,144.480 112.966,145.208 112.167 C 146.695 110.535,146.129 110.895,142.238 114.053 M147.614 112.553 C 145.250 114.119,143.898 115.288,145.833 114.093 C 149.083 112.086,150.411 111.111,149.895 111.111 C 149.838 111.111,148.811 111.760,147.614 112.553 M173.810 111.527 C 173.140 111.755,173.464 111.790,174.802 111.635 C 175.893 111.509,176.860 111.340,176.951 111.259 C 177.264 110.980,174.801 111.190,173.810 111.527 M259.325 111.399 C 259.544 111.605,260.615 112.261,261.706 112.857 C 262.798 113.452,263.333 113.646,262.897 113.288 C 262.009 112.559,258.703 110.811,259.325 111.399 M171.032 111.861 C 171.524 112.215,171.530 112.290,171.065 112.296 C 170.756 112.299,170.596 112.395,170.710 112.509 C 170.823 112.622,171.344 112.544,171.867 112.335 C 172.390 112.126,172.609 111.944,172.354 111.930 C 172.099 111.916,171.563 111.799,171.163 111.669 C 170.559 111.473,170.537 111.505,171.032 111.861 M131.207 116.855 C 127.527 119.331,124.313 121.574,124.064 121.839 C 123.712 122.215,137.772 113.039,138.459 112.445 C 138.550 112.366,138.461 112.313,138.261 112.327 C 138.061 112.341,134.886 114.379,131.207 116.855 M167.802 113.082 C 166.883 113.848,167.182 114.123,168.418 113.649 C 168.762 113.517,168.932 113.230,168.797 113.011 C 168.643 112.762,168.904 112.713,169.494 112.880 C 170.221 113.086,170.300 113.052,169.841 112.730 C 169.028 112.161,168.876 112.187,167.802 113.082 M144.444 113.248 C 144.444 113.332,143.953 113.717,143.353 114.103 L 142.262 114.805 143.018 113.950 C 143.687 113.194,144.444 112.821,144.444 113.248 M245.447 115.401 C 246.096 116.014,246.860 116.862,247.145 117.286 C 247.430 117.709,247.309 117.397,246.875 116.591 C 246.311 115.543,246.220 115.065,246.555 114.909 C 246.813 114.788,246.622 114.790,246.131 114.911 C 245.624 115.037,245.238 114.950,245.238 114.709 C 245.238 114.476,245.020 114.286,244.753 114.286 C 244.486 114.286,244.798 114.788,245.447 115.401 M250.133 116.930 C 250.281 117.185,250.203 117.459,249.959 117.540 C 249.663 117.639,249.700 117.840,250.069 118.147 C 251.068 118.976,251.713 118.091,250.735 117.233 C 250.256 116.812,249.985 116.676,250.133 116.930 M286.104 120.734 C 288.392 123.080,290.413 125.000,290.597 125.000 C 290.780 125.000,290.680 124.777,290.374 124.504 C 290.068 124.231,288.047 122.312,285.881 120.238 L 281.944 116.469 286.104 120.734 M147.941 117.334 C 148.345 117.496,148.309 117.710,147.780 118.295 C 146.961 119.200,147.301 119.309,148.186 118.424 C 149.006 117.604,148.977 117.056,148.115 117.095 C 147.662 117.115,147.601 117.198,147.941 117.334 M271.429 119.172 C 271.429 119.240,272.009 119.820,272.718 120.461 L 274.008 121.627 272.842 120.337 C 271.756 119.135,271.429 118.865,271.429 119.172 M253.373 120.438 L 254.563 121.498 253.295 121.337 C 252.597 121.248,252.116 121.322,252.227 121.500 C 252.505 121.951,254.762 121.911,254.762 121.456 C 254.762 121.252,254.182 120.702,253.472 120.232 L 252.183 119.379 253.373 120.438 M109.472 123.522 C 107.427 125.546,105.154 128.001,104.421 128.978 L 103.088 130.754 104.364 129.365 C 105.066 128.601,107.444 126.146,109.649 123.909 C 111.854 121.672,113.553 119.841,113.424 119.841 C 113.295 119.841,111.517 121.497,109.472 123.522 M138.561 122.454 C 137.647 123.236,137.000 124.040,137.124 124.240 C 137.247 124.440,137.034 124.603,136.650 124.603 C 136.103 124.603,136.056 124.707,136.435 125.085 C 136.813 125.464,137.152 125.315,138.008 124.391 C 138.608 123.744,138.927 123.348,138.716 123.512 C 137.455 124.492,137.775 123.543,139.087 122.412 C 139.960 121.659,140.573 121.041,140.448 121.038 C 140.324 121.034,139.475 121.672,138.561 122.454 M265.873 121.748 C 265.873 121.927,266.409 122.469,267.063 122.953 C 267.718 123.437,268.254 123.768,268.254 123.689 C 268.254 123.609,267.718 123.067,267.063 122.483 C 266.409 121.900,265.873 121.569,265.873 121.748 M255.265 123.643 C 255.644 124.098,255.849 124.574,255.721 124.702 C 255.593 124.831,255.860 125.135,256.315 125.379 C 257.554 126.042,257.313 125.303,255.859 123.983 C 255.153 123.342,254.886 123.189,255.265 123.643 M126.389 124.836 L 125.198 125.859 126.488 125.006 C 127.197 124.536,127.778 124.075,127.778 123.981 C 127.778 123.684,127.610 123.787,126.389 124.836 M270.162 125.098 C 271.104 126.249,273.123 126.736,272.556 125.676 C 272.249 125.103,272.030 124.980,271.918 125.318 C 271.785 125.717,271.508 125.678,270.695 125.149 C 269.813 124.575,269.727 124.567,270.162 125.098 M293.489 128.075 C 294.915 129.549,297.344 132.629,298.887 134.921 C 301.470 138.759,303.001 140.794,302.169 139.286 C 299.581 134.592,292.315 125.397,291.194 125.397 C 291.030 125.397,292.063 126.602,293.489 128.075 M281.548 128.571 C 283.064 130.099,284.393 131.349,284.503 131.349 C 284.612 131.349,283.461 130.099,281.944 128.571 C 280.428 127.044,279.099 125.794,278.990 125.794 C 278.880 125.794,280.032 127.044,281.548 128.571 M274.206 128.373 C 274.947 129.137,275.642 129.762,275.751 129.762 C 275.860 129.762,275.344 129.137,274.603 128.373 C 273.863 127.609,273.168 126.984,273.059 126.984 C 272.949 126.984,273.466 127.609,274.206 128.373 M133.333 128.181 C 132.850 128.489,132.842 128.560,133.296 128.565 C 133.721 128.570,133.678 128.783,133.112 129.464 L 132.371 130.357 133.296 129.506 C 134.309 128.572,134.339 127.543,133.333 128.181 M113.699 130.150 C 112.630 131.236,111.876 132.247,112.025 132.396 C 112.382 132.753,115.080 131.933,116.079 131.164 C 116.578 130.781,116.164 130.861,114.947 131.384 C 112.379 132.489,112.197 132.089,114.294 129.952 C 115.253 128.974,115.950 128.175,115.842 128.175 C 115.733 128.175,114.769 129.063,113.699 130.150 M130.767 129.974 C 129.187 131.554,128.904 132.417,130.193 131.728 C 130.648 131.484,130.913 131.178,130.782 131.047 C 130.652 130.916,131.027 130.306,131.616 129.690 C 133.172 128.066,132.426 128.315,130.767 129.974 M118.254 129.762 C 117.490 130.180,117.008 130.530,117.182 130.539 C 117.603 130.561,119.841 129.397,119.841 129.156 C 119.841 128.897,119.818 128.906,118.254 129.762 M122.210 132.470 C 119.146 134.434,115.250 137.572,111.659 140.970 C 110.542 142.027,109.292 143.163,108.881 143.495 C 108.471 143.826,108.345 144.042,108.602 143.973 C 108.859 143.905,109.930 143.039,110.983 142.049 C 116.836 136.543,123.862 131.217,125.271 131.217 C 125.558 131.217,125.794 131.068,125.794 130.886 C 125.794 130.286,125.230 130.535,122.210 132.470 M101.481 132.837 C 99.793 135.168,97.498 138.786,96.878 140.092 C 96.311 141.284,96.328 141.260,100.266 135.276 C 103.245 130.750,103.804 129.628,101.481 132.837 M124.255 132.489 C 123.736 132.888,123.076 133.911,122.788 134.762 C 122.326 136.127,122.332 136.219,122.838 135.539 C 123.154 135.116,123.413 134.497,123.413 134.165 C 123.413 133.833,123.904 133.159,124.504 132.668 C 125.808 131.600,125.603 131.453,124.255 132.489 M284.298 132.625 C 284.071 133.340,284.335 133.764,285.707 134.897 C 288.939 137.566,296.401 146.977,294.345 145.793 C 294.072 145.636,294.296 146.027,294.841 146.662 C 295.387 147.298,295.878 147.892,295.933 147.983 C 295.987 148.074,296.130 148.050,296.250 147.930 C 296.902 147.278,290.106 138.432,286.378 135.079 C 284.895 133.745,284.521 133.174,284.719 132.551 C 284.859 132.108,284.885 131.746,284.776 131.746 C 284.667 131.746,284.452 132.142,284.298 132.625 M108.552 135.414 C 106.371 137.842,101.822 144.260,100.042 147.421 C 98.706 149.794,100.101 147.916,102.843 143.651 C 105.400 139.673,110.136 133.730,110.749 133.730 C 112.068 133.730,111.001 136.646,108.822 138.998 C 106.790 141.190,101.413 147.929,100.820 149.027 C 100.455 149.702,101.614 148.336,104.414 144.794 C 105.859 142.965,108.047 140.345,109.275 138.973 C 111.180 136.844,111.508 136.251,111.508 134.929 C 111.508 132.606,111.000 132.689,108.552 135.414 M281.089 135.082 C 282.146 136.083,284.418 137.894,286.137 139.106 C 287.857 140.318,289.780 141.791,290.410 142.381 C 292.951 144.758,293.651 145.302,293.651 144.901 C 293.651 144.670,293.178 144.161,292.599 143.769 C 292.021 143.376,291.083 142.600,290.516 142.044 C 289.948 141.488,288.234 140.162,286.706 139.098 C 285.179 138.034,282.857 136.285,281.548 135.212 L 279.167 133.261 281.089 135.082 M271.298 134.755 C 271.476 135.221,271.617 135.258,271.839 134.899 C 272.048 134.560,272.779 134.987,274.264 136.316 L 276.389 138.219 274.335 136.173 C 272.323 134.169,270.800 133.458,271.298 134.755 M116.667 141.090 C 108.450 148.015,103.121 153.987,99.422 160.417 C 97.634 163.525,98.537 162.544,100.702 159.028 C 104.725 152.494,109.533 147.309,117.460 140.958 C 120.089 138.852,122.665 136.448,122.192 136.541 C 122.100 136.560,119.613 138.606,116.667 141.090 M277.223 140.278 C 277.818 141.369,278.474 142.440,278.680 142.659 C 279.268 143.281,277.521 139.975,276.792 139.087 C 276.434 138.651,276.628 139.187,277.223 140.278 M282.937 139.878 C 282.937 140.230,283.888 141.893,285.051 143.573 C 288.610 148.712,291.229 153.718,293.502 159.722 C 293.998 161.032,294.412 161.857,294.424 161.557 C 294.493 159.725,290.288 150.958,286.609 145.264 C 282.562 139.001,282.603 139.419,286.310 142.242 C 288.182 143.668,287.262 142.648,284.874 140.650 C 283.285 139.321,282.937 139.182,282.937 139.878 M200.905 139.975 C 201.948 140.057,203.555 140.056,204.476 139.973 C 205.397 139.889,204.544 139.822,202.579 139.823 C 200.615 139.825,199.862 139.893,200.905 139.975 M195.933 140.359 C 196.424 140.454,197.227 140.454,197.718 140.359 C 198.209 140.265,197.808 140.187,196.825 140.187 C 195.843 140.187,195.441 140.265,195.933 140.359 M207.440 140.359 C 207.932 140.454,208.735 140.454,209.226 140.359 C 209.717 140.265,209.315 140.187,208.333 140.187 C 207.351 140.187,206.949 140.265,207.440 140.359 M303.373 142.063 C 303.926 143.155,304.468 144.048,304.577 144.048 C 304.686 144.048,304.323 143.155,303.770 142.063 C 303.217 140.972,302.675 140.079,302.566 140.079 C 302.457 140.079,302.820 140.972,303.373 142.063 M190.278 141.114 L 188.294 141.657 190.079 141.410 C 191.062 141.274,192.579 141.031,193.452 140.869 L 195.040 140.576 193.651 140.573 C 192.887 140.572,191.369 140.815,190.278 141.114 M211.111 140.745 C 211.657 140.833,213.331 141.173,214.832 141.500 C 216.332 141.828,217.636 142.020,217.728 141.929 C 217.985 141.671,212.340 140.469,211.162 140.530 L 210.119 140.584 211.111 140.745 M120.679 142.901 C 120.189 143.357,119.895 143.837,120.024 143.966 C 120.154 144.096,120.647 143.815,121.120 143.342 C 122.241 142.221,121.840 141.819,120.679 142.901 M276.760 144.486 C 276.611 144.727,276.998 145.396,277.618 145.974 L 278.747 147.024 277.824 145.962 C 277.316 145.378,277.020 144.708,277.164 144.474 C 277.309 144.239,277.339 144.048,277.229 144.048 C 277.120 144.048,276.909 144.245,276.760 144.486 M291.869 146.637 C 293.399 148.159,295.615 150.878,296.795 152.679 C 298.985 156.023,299.984 157.146,298.382 154.464 C 296.037 150.537,292.544 146.337,290.278 144.719 C 289.623 144.251,290.339 145.114,291.869 146.637 M106.222 146.243 C 104.280 148.515,104.509 148.509,106.746 146.230 C 107.710 145.248,108.327 144.450,108.118 144.457 C 107.909 144.465,107.056 145.268,106.222 146.243 M278.571 144.727 C 278.899 144.849,279.394 145.128,279.672 145.348 C 280.050 145.646,280.114 145.583,279.927 145.096 C 279.789 144.738,279.294 144.459,278.827 144.476 C 278.246 144.497,278.165 144.577,278.571 144.727 M227.778 145.833 C 228.323 146.145,228.948 146.400,229.167 146.400 C 229.385 146.400,229.117 146.145,228.571 145.833 C 228.026 145.521,227.401 145.266,227.183 145.266 C 226.964 145.266,227.232 145.521,227.778 145.833 M117.303 147.089 C 116.834 147.732,116.747 148.055,117.071 147.947 C 117.697 147.739,118.894 146.026,118.402 146.044 C 118.211 146.051,117.717 146.521,117.303 147.089 M169.738 149.810 C 168.267 150.797,167.063 151.691,167.063 151.797 C 167.063 151.904,168.313 151.159,169.841 150.143 C 172.272 148.527,172.914 148.016,172.516 148.016 C 172.459 148.016,171.209 148.823,169.738 149.810 M232.540 148.133 C 232.540 148.223,233.790 149.127,235.317 150.143 C 236.845 151.159,238.095 151.906,238.095 151.804 C 238.095 151.701,237.068 150.927,235.813 150.084 C 233.034 148.217,232.540 147.922,232.540 148.133 M103.134 150.099 C 101.134 152.700,101.080 152.778,101.293 152.778 C 101.402 152.778,102.233 151.796,103.140 150.595 C 104.046 149.395,104.708 148.413,104.610 148.413 C 104.512 148.413,103.848 149.172,103.134 150.099 M97.797 151.230 C 97.233 152.343,96.839 153.320,96.920 153.401 C 97.001 153.483,97.547 152.572,98.133 151.378 C 98.718 150.184,99.113 149.206,99.010 149.206 C 98.907 149.206,98.361 150.117,97.797 151.230 M98.253 152.987 C 97.426 154.400,96.589 155.456,96.391 155.334 C 96.193 155.212,96.032 155.316,96.032 155.565 C 96.032 156.558,97.068 155.573,98.518 153.202 C 99.357 151.829,99.980 150.641,99.900 150.562 C 99.821 150.482,99.080 151.574,98.253 152.987 M110.592 152.297 C 111.253 152.717,110.191 154.953,107.400 159.016 C 105.005 162.503,104.704 163.293,105.919 162.907 C 106.616 162.686,106.566 163.037,105.319 167.147 C 103.703 172.471,103.387 173.678,103.677 173.413 C 103.796 173.304,104.540 171.071,105.329 168.452 C 106.119 165.833,106.863 163.378,106.981 162.996 C 107.137 162.494,106.976 162.302,106.399 162.302 C 105.714 162.302,105.915 161.837,107.816 159.028 C 111.113 154.153,111.973 151.972,110.592 151.990 C 110.226 151.995,110.226 152.064,110.592 152.297 M280.159 152.381 C 280.159 152.599,280.332 152.778,280.543 152.778 C 280.755 152.778,280.873 153.001,280.807 153.274 C 280.740 153.547,280.761 153.635,280.853 153.470 C 280.945 153.305,281.228 153.291,281.482 153.439 C 281.736 153.587,281.604 153.320,281.188 152.846 C 280.346 151.885,280.159 151.801,280.159 152.381 M100.077 154.266 C 99.033 155.744,95.634 162.079,95.640 162.533 C 95.643 162.733,96.558 161.200,97.672 159.127 C 98.786 157.054,100.046 154.866,100.471 154.266 C 100.897 153.666,101.155 153.175,101.046 153.175 C 100.937 153.175,100.501 153.666,100.077 154.266 M107.305 154.927 C 103.703 159.236,98.133 167.741,97.407 170.040 C 97.269 170.476,97.754 169.762,98.484 168.452 C 100.387 165.040,104.193 159.399,106.850 156.054 C 109.339 152.920,109.672 152.095,107.305 154.927 M90.973 154.960 C 90.977 155.833,91.059 156.144,91.154 155.650 C 91.249 155.157,91.245 154.442,91.146 154.063 C 91.046 153.683,90.969 154.087,90.973 154.960 M160.283 157.840 C 156.780 161.462,153.150 165.873,153.673 165.873 C 153.756 165.873,154.918 164.484,156.255 162.787 C 157.592 161.090,160.041 158.387,161.697 156.781 C 163.353 155.175,164.642 153.795,164.561 153.715 C 164.481 153.634,162.555 155.491,160.283 157.840 M240.481 153.581 C 240.483 153.685,242.492 155.822,244.945 158.331 C 247.398 160.840,248.838 162.179,248.144 161.307 C 246.838 159.665,240.473 153.247,240.481 153.581 M283.177 156.052 C 286.160 160.179,287.305 162.107,287.938 164.072 C 288.292 165.172,288.815 166.445,289.100 166.902 C 290.573 169.261,292.879 180.257,292.170 181.541 C 292.031 181.792,292.118 181.788,292.401 181.529 C 293.358 180.653,291.577 171.360,289.667 167.262 C 289.260 166.389,288.505 164.590,287.990 163.265 C 287.189 161.204,282.419 153.968,281.861 153.968 C 281.757 153.968,282.349 154.906,283.177 156.052 M201.290 154.654 C 202.108 154.740,203.447 154.740,204.266 154.654 C 205.084 154.569,204.415 154.498,202.778 154.498 C 201.141 154.498,200.471 154.569,201.290 154.654 M300.479 158.916 C 301.176 160.327,301.811 161.417,301.891 161.337 C 302.068 161.160,299.669 156.349,299.403 156.349 C 299.299 156.349,299.783 157.504,300.479 158.916 M219.444 158.135 C 219.990 158.447,220.615 158.702,220.833 158.702 C 221.052 158.702,220.784 158.447,220.238 158.135 C 219.692 157.823,219.067 157.568,218.849 157.568 C 218.631 157.568,218.899 157.823,219.444 158.135 M283.703 160.660 C 284.133 161.504,285.025 164.334,285.686 166.950 C 286.346 169.567,287.074 172.136,287.304 172.659 L 287.721 173.611 287.507 172.619 C 286.086 166.020,283.844 159.127,283.119 159.127 C 283.010 159.127,283.272 159.817,283.703 160.660 M177.669 162.115 C 169.748 167.429,159.728 181.276,159.940 186.616 C 159.951 186.884,160.459 185.764,161.070 184.127 C 164.314 175.436,170.008 167.942,177.183 162.918 C 180.144 160.845,180.823 160.317,180.531 160.317 C 180.431 160.317,179.143 161.126,177.669 162.115 M225.198 160.898 C 225.635 161.243,227.599 162.751,229.563 164.249 C 235.467 168.750,237.924 171.896,233.153 168.843 C 218.534 159.492,196.405 163.245,186.824 176.701 C 186.361 177.352,187.395 176.454,189.122 174.706 C 201.623 162.057,221.462 160.288,235.119 170.606 C 238.014 172.793,238.282 172.916,237.671 171.774 C 236.845 170.230,230.536 164.160,227.976 162.446 C 225.366 160.699,223.951 159.910,225.198 160.898 M96.805 165.120 C 96.133 166.451,95.648 167.606,95.728 167.686 C 95.808 167.766,96.444 166.677,97.140 165.265 C 97.836 163.853,98.320 162.698,98.216 162.698 C 98.112 162.698,97.477 163.788,96.805 165.120 M250.629 165.079 C 252.456 167.750,253.149 168.510,252.140 166.736 C 251.727 166.010,250.882 164.849,250.262 164.156 C 249.425 163.220,249.519 163.457,250.629 165.079 M94.489 165.123 C 94.244 165.825,94.113 166.468,94.198 166.553 C 94.283 166.638,94.553 166.133,94.797 165.432 C 95.042 164.731,95.172 164.088,95.087 164.003 C 95.002 163.918,94.733 164.422,94.489 165.123 M88.187 165.873 C 88.187 166.637,88.269 166.949,88.369 166.567 C 88.469 166.186,88.469 165.561,88.369 165.179 C 88.269 164.797,88.187 165.109,88.187 165.873 M295.274 166.523 C 295.225 167.694,296.391 168.918,297.817 169.194 C 299.015 169.425,298.382 169.019,296.742 168.504 C 296.369 168.387,295.894 167.703,295.687 166.983 C 295.421 166.061,295.299 165.925,295.274 166.523 M85.948 168.284 C 85.383 168.956,84.921 169.697,84.921 169.930 C 84.921 170.164,85.322 169.762,85.813 169.038 C 86.305 168.313,86.974 167.632,87.302 167.526 C 87.779 167.370,87.803 167.445,87.423 167.906 C 87.037 168.373,87.093 168.481,87.720 168.481 C 88.647 168.481,88.749 167.644,87.864 167.304 C 87.000 166.973,87.091 166.926,85.948 168.284 M312.790 168.254 C 312.790 169.018,312.872 169.330,312.972 168.948 C 313.072 168.566,313.072 167.941,312.972 167.560 C 312.872 167.178,312.790 167.490,312.790 168.254 M254.983 172.520 C 257.846 178.295,259.277 182.735,260.708 190.278 C 261.084 192.257,261.084 192.256,260.880 189.779 C 260.477 184.915,257.344 175.643,254.309 170.339 C 252.427 167.050,252.686 167.887,254.983 172.520 M88.619 171.825 C 88.619 173.244,88.691 173.824,88.779 173.115 C 88.867 172.406,88.867 171.245,88.779 170.536 C 88.691 169.826,88.619 170.407,88.619 171.825 M112.591 169.684 C 112.432 169.843,112.302 170.247,112.302 170.582 C 112.302 171.029,112.419 171.073,112.743 170.749 C 112.986 170.506,113.116 170.102,113.032 169.851 C 112.949 169.600,112.750 169.525,112.591 169.684 M149.980 171.864 C 149.524 172.758,149.219 173.558,149.302 173.641 C 149.385 173.724,149.842 172.992,150.317 172.015 C 151.398 169.789,151.106 169.658,149.980 171.864 M110.601 172.978 C 110.227 173.612,109.928 174.371,109.936 174.664 C 109.945 174.958,110.209 174.605,110.524 173.881 C 110.839 173.156,111.278 172.675,111.501 172.813 C 111.723 172.950,111.905 172.784,111.905 172.444 C 111.905 171.484,111.350 171.711,110.601 172.978 M298.521 173.810 C 298.521 174.792,298.598 175.193,298.693 174.702 C 298.787 174.211,298.787 173.408,298.693 172.917 C 298.598 172.426,298.521 172.827,298.521 173.810 M111.562 174.088 C 111.462 175.700,110.602 177.185,110.265 176.327 C 110.015 175.693,109.973 175.685,109.949 176.266 C 109.933 176.635,110.092 177.043,110.301 177.172 C 110.840 177.505,111.986 175.117,111.784 174.080 L 111.616 173.214 111.562 174.088 M206.037 178.075 L 206.121 182.738 206.249 178.384 L 206.378 174.031 207.375 175.210 L 208.372 176.389 207.460 174.906 C 206.090 172.678,205.945 173.001,206.037 178.075 M103.005 174.830 C 102.859 175.411,102.816 175.964,102.909 176.057 C 103.003 176.151,103.199 175.752,103.345 175.170 C 103.491 174.589,103.534 174.036,103.440 173.943 C 103.346 173.849,103.150 174.248,103.005 174.830 M287.728 174.007 C 287.657 174.947,289.789 180.543,290.400 181.022 C 290.994 181.487,291.013 181.472,290.563 180.896 C 290.283 180.538,289.537 178.752,288.906 176.928 C 288.275 175.104,287.745 173.789,287.728 174.007 M100.397 174.498 C 100.724 174.624,101.305 175.084,101.687 175.520 C 102.068 175.955,102.381 176.134,102.381 175.916 C 102.381 175.335,101.020 174.201,100.366 174.238 C 99.908 174.263,99.914 174.312,100.397 174.498 M97.224 175.231 C 97.225 175.432,97.686 176.131,98.249 176.786 L 99.272 177.976 98.376 176.587 C 97.226 174.806,97.222 174.801,97.224 175.231 M313.952 176.419 C 313.908 177.263,314.195 177.927,314.881 178.571 C 315.427 179.084,315.873 179.337,315.873 179.133 C 315.873 178.929,315.528 178.547,315.105 178.283 C 314.679 178.016,314.266 177.225,314.177 176.501 L 314.016 175.198 313.952 176.419 M91.667 176.984 C 91.667 177.725,91.772 177.831,92.143 177.460 C 92.513 177.090,92.513 176.878,92.143 176.508 C 91.772 176.138,91.667 176.243,91.667 176.984 M107.549 179.602 C 106.859 181.260,106.367 182.690,106.456 182.779 C 106.546 182.868,107.110 181.690,107.710 180.160 C 108.310 178.630,108.964 177.479,109.163 177.601 C 109.776 177.981,109.565 179.309,108.581 181.263 C 107.467 183.474,105.466 188.931,105.687 189.153 C 105.772 189.238,106.334 187.919,106.935 186.221 C 107.537 184.524,108.470 182.262,109.009 181.196 C 109.737 179.756,109.924 178.914,109.738 177.922 C 109.366 175.938,108.938 176.267,107.549 179.602 M146.473 180.214 C 146.012 181.578,145.648 182.882,145.664 183.113 C 145.681 183.343,146.126 182.295,146.654 180.784 C 147.182 179.273,147.545 177.968,147.462 177.885 C 147.378 177.802,146.933 178.849,146.473 180.214 M101.330 178.626 C 101.952 178.987,102.033 179.398,101.858 181.292 L 101.651 183.532 102.071 181.456 C 102.499 179.336,102.128 178.157,101.043 178.187 C 100.797 178.193,100.926 178.391,101.330 178.626 M298.711 179.242 C 297.900 179.454,297.486 180.778,297.727 182.393 C 297.859 183.277,297.910 183.166,297.956 181.894 C 298.000 180.686,298.251 180.092,298.909 179.633 C 299.847 178.979,299.831 178.949,298.711 179.242 M211.111 180.556 C 211.577 181.210,212.048 181.746,212.157 181.746 C 212.266 181.746,211.974 181.210,211.508 180.556 C 211.042 179.901,210.571 179.365,210.462 179.365 C 210.353 179.365,210.645 179.901,211.111 180.556 M314.783 182.341 C 314.787 183.214,314.868 183.525,314.963 183.031 C 315.058 182.537,315.055 181.823,314.955 181.444 C 314.856 181.064,314.778 181.468,314.783 182.341 M87.817 184.524 C 87.817 185.724,87.892 186.215,87.983 185.615 C 88.074 185.015,88.074 184.033,87.983 183.433 C 87.892 182.832,87.817 183.323,87.817 184.524 M105.385 185.478 C 104.029 190.142,103.512 194.366,104.530 192.460 C 105.249 191.113,105.763 189.261,105.191 190.079 C 104.480 191.095,104.670 189.271,105.583 186.313 C 106.035 184.850,106.320 183.568,106.215 183.464 C 106.111 183.360,105.737 184.266,105.385 185.478 M308.447 185.119 C 308.450 186.210,308.527 186.610,308.618 186.006 C 308.709 185.403,308.707 184.510,308.613 184.022 C 308.518 183.534,308.444 184.028,308.447 185.119 M297.088 185.368 C 296.745 186.652,296.760 189.485,297.113 189.837 C 297.408 190.133,297.306 198.622,296.986 200.397 C 296.825 201.290,296.844 201.307,297.175 200.564 C 297.621 199.565,297.909 190.237,297.507 189.835 C 297.350 189.678,297.222 188.651,297.222 187.553 C 297.222 185.116,298.028 185.533,298.385 188.154 C 298.664 190.208,299.625 190.756,299.556 188.823 L 299.509 187.500 299.174 188.690 C 298.882 189.727,298.857 189.662,298.985 188.194 C 299.077 187.125,298.984 186.599,298.729 186.756 C 298.479 186.910,298.417 186.648,298.565 186.062 C 298.695 185.543,298.691 185.369,298.554 185.675 C 298.367 186.095,298.188 186.010,297.823 185.329 L 297.340 184.426 297.088 185.368 M315.239 190.873 C 315.239 194.256,315.300 195.640,315.374 193.948 C 315.449 192.257,315.449 189.489,315.374 187.798 C 315.300 186.106,315.239 187.490,315.239 190.873 M229.654 191.766 C 223.779 199.779,224.153 198.678,226.291 201.641 C 235.196 213.981,235.262 214.082,234.589 214.357 C 234.066 214.571,234.114 214.633,234.821 214.655 C 236.109 214.695,236.203 214.862,230.357 206.703 C 227.411 202.591,225.000 199.124,225.000 198.999 C 225.000 198.822,232.047 188.947,233.843 186.607 C 234.053 186.334,234.129 186.111,234.012 186.111 C 233.896 186.111,231.935 188.656,229.654 191.766 M108.624 188.492 C 108.281 189.365,108.165 190.079,108.365 190.079 C 109.264 190.079,108.701 192.094,107.697 192.476 C 106.866 192.792,106.709 193.053,106.899 193.810 C 107.048 194.402,106.917 194.932,106.545 195.240 C 105.891 195.783,104.762 199.225,104.762 200.676 C 104.762 202.083,106.323 202.647,108.358 201.976 L 109.970 201.444 109.875 198.043 C 109.815 195.899,109.963 194.302,110.277 193.720 C 110.893 192.576,110.488 189.683,109.711 189.683 C 109.415 189.683,109.046 189.476,108.891 189.224 C 108.726 188.958,108.781 188.873,109.021 189.022 C 109.373 189.239,109.898 188.172,109.915 187.202 C 109.931 186.344,109.169 187.105,108.624 188.492 M144.246 189.286 C 144.092 190.405,144.050 191.404,144.152 191.507 C 144.255 191.609,144.461 190.774,144.610 189.649 C 144.759 188.525,144.801 187.526,144.703 187.428 C 144.606 187.331,144.400 188.166,144.246 189.286 M92.186 190.675 C 92.189 191.984,92.263 192.472,92.351 191.759 C 92.439 191.046,92.438 189.974,92.347 189.378 C 92.256 188.782,92.184 189.365,92.186 190.675 M308.669 191.071 C 308.534 191.944,308.297 193.105,308.143 193.651 C 307.899 194.517,307.946 194.493,308.514 193.469 C 308.878 192.813,309.110 191.677,309.040 190.890 L 308.915 189.484 308.669 191.071 M99.841 191.706 C 99.696 192.616,99.654 193.437,99.749 193.532 C 99.844 193.627,100.046 192.966,100.198 192.063 C 100.351 191.161,100.392 190.339,100.291 190.238 C 100.189 190.136,99.987 190.797,99.841 191.706 M110.146 191.470 C 110.321 192.405,110.216 193.153,109.825 193.752 C 109.390 194.418,109.290 195.449,109.430 197.832 C 109.629 201.238,109.152 201.984,106.776 201.984 C 104.850 201.984,104.863 197.921,106.796 195.463 C 107.285 194.841,107.500 194.152,107.351 193.683 C 107.165 193.096,107.321 192.887,108.018 192.788 C 108.722 192.688,108.957 192.366,109.053 191.369 C 109.217 189.668,109.818 189.724,110.146 191.470 M205.619 191.294 L 205.556 192.707 197.027 195.431 C 192.336 196.929,188.576 198.232,188.670 198.326 C 188.885 198.541,205.236 193.299,205.684 192.873 C 205.863 192.701,205.936 191.958,205.846 191.221 L 205.683 189.881 205.619 191.294 M143.784 194.841 C 143.784 196.478,143.854 197.148,143.940 196.329 C 144.025 195.511,144.025 194.172,143.940 193.353 C 143.854 192.535,143.784 193.204,143.784 194.841 M261.029 200.000 C 260.710 210.276,259.093 217.176,255.178 224.961 C 254.290 226.728,253.652 228.175,253.761 228.175 C 254.712 228.175,259.120 216.945,260.380 211.310 C 261.146 207.887,261.851 195.790,261.432 193.254 C 261.342 192.708,261.161 195.744,261.029 200.000 M158.447 194.643 C 158.450 195.734,158.527 196.133,158.618 195.530 C 158.709 194.927,158.707 194.034,158.613 193.546 C 158.518 193.058,158.444 193.552,158.447 194.643 M99.030 195.855 C 98.881 196.652,98.838 197.383,98.935 197.480 C 99.032 197.577,99.233 197.004,99.383 196.208 C 99.532 195.412,99.575 194.681,99.478 194.584 C 99.381 194.487,99.179 195.059,99.030 195.855 M179.098 199.008 C 179.100 200.536,179.172 201.112,179.258 200.289 C 179.344 199.465,179.342 198.215,179.255 197.511 C 179.167 196.807,179.097 197.480,179.098 199.008 M102.679 197.451 C 102.515 197.616,102.381 198.114,102.381 198.558 C 102.381 199.142,102.501 199.245,102.815 198.931 C 103.054 198.692,103.188 198.194,103.113 197.824 C 103.038 197.454,102.842 197.286,102.679 197.451 M115.647 198.644 C 115.814 199.309,115.760 199.580,115.492 199.415 C 114.853 199.019,115.005 199.841,115.675 200.397 C 116.187 200.822,116.270 200.664,116.270 199.255 C 116.270 198.322,116.081 197.619,115.830 197.619 C 115.555 197.619,115.487 198.004,115.647 198.644 M308.849 200.000 C 308.849 201.200,308.923 201.691,309.014 201.091 C 309.105 200.491,309.105 199.509,309.014 198.909 C 308.923 198.309,308.849 198.800,308.849 200.000 M314.791 199.603 C 314.791 200.585,314.868 200.987,314.963 200.496 C 315.057 200.005,315.057 199.201,314.963 198.710 C 314.868 198.219,314.791 198.621,314.791 199.603 M94.103 198.810 C 94.103 199.137,94.257 199.762,94.444 200.198 C 94.659 200.699,94.785 200.772,94.785 200.397 C 94.785 200.069,94.632 199.444,94.444 199.008 C 94.229 198.508,94.103 198.434,94.103 198.810 M188.492 199.291 C 188.801 199.597,192.460 200.769,192.460 200.561 C 192.460 200.460,192.006 200.204,191.451 199.993 C 190.123 199.488,188.240 199.042,188.492 199.291 M97.739 201.335 C 97.494 202.133,97.460 203.290,97.654 204.212 L 97.979 205.754 97.861 204.167 C 97.796 203.294,97.914 202.079,98.124 201.468 C 98.333 200.856,98.424 200.276,98.327 200.178 C 98.229 200.081,97.965 200.601,97.739 201.335 M143.784 202.778 C 143.784 204.415,143.854 205.084,143.940 204.266 C 144.025 203.447,144.025 202.108,143.940 201.290 C 143.854 200.471,143.784 201.141,143.784 202.778 M87.847 204.960 C 87.848 207.361,87.913 208.292,87.992 207.029 C 88.071 205.766,88.070 203.802,87.990 202.664 C 87.911 201.526,87.846 202.560,87.847 204.960 M158.452 202.778 C 158.452 203.978,158.527 204.469,158.618 203.869 C 158.708 203.269,158.708 202.287,158.618 201.687 C 158.527 201.086,158.452 201.577,158.452 202.778 M195.206 201.615 C 196.389 202.035,197.426 202.310,197.510 202.226 C 197.695 202.041,194.080 200.782,193.481 200.823 C 193.247 200.839,194.023 201.195,195.206 201.615 M295.547 204.281 C 294.953 205.722,294.528 206.962,294.603 207.037 C 294.678 207.112,295.236 206.003,295.844 204.574 C 296.451 203.144,296.876 201.904,296.788 201.817 C 296.699 201.731,296.141 202.839,295.547 204.281 M314.378 202.778 C 314.378 203.542,314.459 203.854,314.559 203.472 C 314.659 203.090,314.659 202.465,314.559 202.083 C 314.459 201.701,314.378 202.014,314.378 202.778 M104.013 203.671 C 103.102 206.112,103.127 208.350,104.108 212.206 C 104.648 214.332,105.301 217.143,105.558 218.452 C 106.074 221.079,108.104 225.073,109.668 226.538 L 110.674 227.481 110.912 226.534 C 111.043 226.012,111.087 224.249,111.011 222.614 L 110.872 219.643 110.793 222.893 C 110.750 224.681,110.538 226.253,110.322 226.386 C 109.803 226.707,106.836 222.085,106.397 220.272 C 103.428 208.027,103.444 208.132,104.063 205.372 C 104.650 202.758,104.628 202.021,104.013 203.671 M106.940 203.125 C 107.705 203.289,108.169 203.659,108.250 204.170 C 108.318 204.605,108.531 205.317,108.723 205.754 C 108.915 206.190,109.159 207.440,109.265 208.532 C 109.854 214.607,110.498 219.558,110.622 218.972 C 110.700 218.603,110.564 216.639,110.320 214.607 C 110.075 212.575,109.772 209.792,109.645 208.422 C 109.517 207.052,109.260 205.836,109.072 205.720 C 108.884 205.604,108.730 205.109,108.730 204.619 C 108.730 203.434,108.001 202.767,106.766 202.825 C 105.823 202.868,105.835 202.889,106.940 203.125 M95.666 203.798 C 95.577 205.023,96.948 208.016,97.305 207.378 C 97.509 207.014,97.587 206.500,97.480 206.235 C 97.373 205.970,97.257 206.111,97.223 206.548 C 97.186 207.014,96.859 206.523,96.429 205.357 C 96.026 204.266,95.683 203.564,95.666 203.798 M205.470 214.512 C 205.594 225.204,205.586 225.179,207.820 222.010 C 209.169 220.095,208.359 220.818,206.769 222.947 L 205.978 224.008 205.965 214.385 C 205.958 209.092,205.818 204.762,205.655 204.762 C 205.491 204.761,205.408 209.149,205.470 214.512 M313.981 205.952 C 313.981 206.716,314.063 207.029,314.162 206.647 C 314.262 206.265,314.262 205.640,314.162 205.258 C 314.063 204.876,313.981 205.188,313.981 205.952 M144.140 207.143 C 144.140 207.907,144.221 208.219,144.321 207.837 C 144.421 207.455,144.421 206.830,144.321 206.448 C 144.221 206.066,144.140 206.379,144.140 207.143 M307.251 210.714 C 307.251 211.696,307.328 212.098,307.423 211.607 C 307.517 211.116,307.517 210.312,307.423 209.821 C 307.328 209.330,307.251 209.732,307.251 210.714 M292.215 211.210 C 290.849 213.528,290.760 213.726,291.455 212.897 C 292.261 211.937,292.956 210.714,292.696 210.714 C 292.592 210.714,292.376 210.938,292.215 211.210 M88.195 212.897 C 88.200 213.770,88.281 214.080,88.376 213.587 C 88.471 213.093,88.467 212.379,88.368 211.999 C 88.269 211.620,88.191 212.024,88.195 212.897 M160.942 214.286 C 161.088 214.831,161.373 215.546,161.575 215.873 C 161.830 216.287,161.862 216.166,161.677 215.476 C 161.531 214.931,161.246 214.216,161.044 213.889 C 160.789 213.475,160.757 213.596,160.942 214.286 M289.313 215.695 C 286.947 219.202,286.557 221.032,288.176 221.032 C 288.419 221.032,288.325 220.711,287.966 220.315 C 287.359 219.644,287.431 219.414,289.093 216.743 C 291.067 213.571,291.212 212.882,289.313 215.695 M145.691 214.683 C 145.691 215.010,145.844 215.635,146.032 216.071 C 146.247 216.572,146.373 216.645,146.373 216.270 C 146.373 215.942,146.219 215.317,146.032 214.881 C 145.817 214.381,145.691 214.307,145.691 214.683 M292.650 215.575 C 292.124 216.660,292.121 216.739,292.626 216.071 C 292.956 215.635,293.419 215.055,293.653 214.782 C 293.927 214.462,293.936 214.286,293.677 214.286 C 293.455 214.286,292.993 214.866,292.650 215.575 M292.714 218.170 C 292.356 219.445,292.063 220.704,292.063 220.967 C 292.063 222.130,289.118 228.834,288.256 229.634 C 287.655 230.190,287.302 230.960,287.302 231.713 C 287.302 232.371,286.766 233.754,286.111 234.786 C 285.456 235.819,284.921 236.841,284.921 237.058 C 284.921 237.276,285.546 236.415,286.310 235.147 C 287.073 233.878,287.698 232.381,287.698 231.819 C 287.698 231.257,288.126 230.341,288.650 229.784 C 289.822 228.535,291.678 223.927,292.803 219.476 C 293.765 215.665,293.698 214.665,292.714 218.170 M162.171 217.367 C 162.295 217.862,162.554 218.363,162.746 218.482 C 163.289 218.818,163.157 218.092,162.520 217.239 C 161.965 216.495,161.952 216.500,162.171 217.367 M290.873 217.430 C 290.873 217.850,290.406 218.787,289.836 219.513 L 288.799 220.833 290.034 219.537 C 291.083 218.437,291.723 216.667,291.071 216.667 C 290.962 216.667,290.873 217.010,290.873 217.430 M305.049 217.550 C 305.269 217.828,305.548 218.323,305.669 218.651 C 305.820 219.057,305.900 218.976,305.921 218.396 C 305.938 217.928,305.659 217.433,305.301 217.295 C 304.814 217.108,304.750 217.173,305.049 217.550 M295.369 218.706 C 294.463 219.829,291.924 225.293,291.246 227.579 C 289.679 232.870,288.733 235.023,286.871 237.545 C 285.798 238.999,284.921 240.362,284.921 240.575 C 284.921 240.990,287.013 238.130,288.622 235.516 C 289.160 234.643,290.165 232.143,290.856 229.960 C 292.213 225.672,295.007 219.570,294.672 221.627 L 294.477 222.817 295.066 221.506 C 295.390 220.785,295.560 220.041,295.444 219.853 C 295.328 219.666,295.440 219.443,295.692 219.359 C 295.944 219.275,296.073 218.972,295.978 218.687 C 295.837 218.264,295.723 218.268,295.369 218.706 M163.119 219.140 C 162.897 221.897,173.582 233.389,179.758 237.037 C 182.003 238.364,180.958 237.398,178.274 235.667 C 176.801 234.716,173.875 232.240,171.772 230.164 C 168.502 226.935,167.129 225.156,163.615 219.597 C 163.355 219.186,163.131 218.980,163.119 219.140 M188.069 222.421 C 192.171 227.305,202.494 233.479,206.261 233.301 C 206.637 233.283,205.694 232.871,204.167 232.385 C 198.646 230.629,194.320 228.014,189.697 223.637 C 188.062 222.088,187.333 221.544,188.069 222.421 M148.049 221.627 C 148.049 221.845,148.391 222.649,148.810 223.413 C 149.228 224.177,149.570 224.623,149.570 224.405 C 149.570 224.187,149.228 223.383,148.810 222.619 C 148.391 221.855,148.049 221.409,148.049 221.627 M311.607 223.115 C 311.180 224.281,311.191 224.331,311.718 223.634 C 312.223 222.968,312.521 221.825,312.190 221.825 C 312.129 221.825,311.866 222.406,311.607 223.115 M294.444 225.444 C 294.444 225.683,294.724 225.771,295.066 225.640 C 295.891 225.323,295.523 226.577,294.106 228.913 C 287.924 239.097,286.460 241.874,288.175 240.159 C 288.868 239.465,289.472 239.575,288.881 240.287 C 288.605 240.620,288.468 240.981,288.577 241.091 C 288.687 241.200,289.018 240.998,289.313 240.641 C 289.771 240.090,289.752 239.921,289.184 239.506 C 288.507 239.010,291.655 232.609,293.686 230.353 C 294.081 229.914,294.841 228.568,295.374 227.361 L 296.345 225.166 295.395 225.088 C 294.872 225.044,294.444 225.205,294.444 225.444 M235.317 227.039 C 230.589 230.521,224.203 233.026,218.304 233.716 C 215.945 233.991,215.863 234.028,217.509 234.075 C 221.706 234.194,229.942 231.257,234.524 228.008 C 235.506 227.311,236.622 226.623,237.004 226.478 C 237.386 226.334,237.698 226.031,237.698 225.806 C 237.698 225.263,237.804 225.208,235.317 227.039 M108.333 226.493 C 108.333 227.060,109.840 230.556,110.085 230.556 C 110.190 230.556,110.008 229.911,109.679 229.124 C 108.556 226.437,109.424 227.342,112.253 231.808 C 113.897 234.403,115.074 236.693,115.067 237.282 C 115.053 238.402,115.229 238.536,113.258 235.913 C 112.456 234.845,113.031 236.029,113.981 237.401 C 114.949 238.799,115.476 238.788,115.476 237.369 C 115.476 236.663,114.456 234.635,112.726 231.900 C 110.101 227.751,108.333 225.576,108.333 226.493 M309.397 227.598 C 308.464 229.553,308.595 229.885,309.570 228.038 C 310.013 227.199,310.305 226.442,310.219 226.356 C 310.133 226.271,309.763 226.829,309.397 227.598 M150.992 227.778 C 151.331 228.433,151.697 228.968,151.806 228.968 C 151.915 228.968,151.727 228.433,151.389 227.778 C 151.050 227.123,150.684 226.587,150.575 226.587 C 150.466 226.587,150.653 227.123,150.992 227.778 M233.204 230.384 C 231.278 232.237,228.512 234.552,227.058 235.528 C 225.603 236.503,224.555 237.302,224.728 237.302 C 225.558 237.302,230.330 233.608,233.532 230.487 C 235.496 228.572,237.014 227.007,236.905 227.010 C 236.796 227.012,235.130 228.531,233.204 230.384 M301.652 229.184 C 300.987 230.643,301.114 230.954,301.833 229.628 C 302.168 229.008,302.369 228.427,302.278 228.336 C 302.187 228.246,301.905 228.627,301.652 229.184 M152.646 230.562 C 153.035 231.220,153.768 232.247,154.275 232.843 C 154.783 233.440,154.539 232.902,153.733 231.647 C 152.207 229.269,151.416 228.480,152.646 230.562 M110.317 231.113 C 110.317 231.522,112.333 234.921,112.575 234.921 C 112.685 234.921,112.284 234.072,111.686 233.036 C 110.447 230.889,110.317 230.707,110.317 231.113 M298.725 235.665 C 297.478 238.202,296.740 239.921,297.086 239.484 C 297.827 238.548,301.330 231.349,301.130 231.173 C 301.054 231.107,299.972 233.128,298.725 235.665 M249.380 234.393 C 248.769 235.195,248.471 235.725,248.719 235.572 C 249.227 235.258,250.945 232.937,250.669 232.937 C 250.571 232.937,249.991 233.592,249.380 234.393 M210.422 234.015 C 211.025 234.106,211.918 234.104,212.406 234.009 C 212.894 233.915,212.401 233.841,211.310 233.844 C 210.218 233.847,209.819 233.924,210.422 234.015 M156.345 235.709 C 157.034 236.579,157.805 237.419,158.058 237.575 C 158.312 237.732,157.831 237.020,156.989 235.993 C 156.148 234.967,155.377 234.127,155.276 234.127 C 155.175 234.127,155.656 234.839,156.345 235.709 M283.213 239.732 C 282.130 241.190,281.748 242.060,281.863 242.807 C 282.019 243.817,282.026 243.813,282.083 242.684 C 282.116 242.044,282.476 241.151,282.884 240.700 C 283.713 239.784,285.091 237.698,284.867 237.699 C 284.787 237.699,284.043 238.614,283.213 239.732 M160.506 240.466 C 161.796 241.770,162.905 242.782,162.971 242.716 C 163.138 242.550,158.759 238.095,158.428 238.095 C 158.281 238.095,159.215 239.162,160.506 240.466 M293.934 243.564 C 292.027 246.285,289.440 248.869,284.989 252.496 C 284.263 253.087,283.817 253.571,283.997 253.571 C 284.922 253.568,292.417 246.313,294.347 243.552 C 295.529 241.860,296.406 240.476,296.297 240.476 C 296.187 240.476,295.124 241.866,293.934 243.564 M286.038 243.552 C 285.480 244.152,284.719 245.179,284.347 245.833 C 283.676 247.013,283.676 247.015,284.394 246.041 C 284.793 245.501,285.629 244.474,286.251 243.759 C 287.624 242.185,287.459 242.024,286.038 243.552 M164.881 244.251 C 166.552 245.798,171.966 249.603,172.498 249.603 C 172.669 249.603,171.561 248.772,170.035 247.756 C 168.510 246.740,166.369 245.205,165.278 244.344 L 163.294 242.780 164.881 244.251 M199.702 243.131 C 200.084 243.230,200.709 243.230,201.091 243.131 C 201.473 243.031,201.161 242.949,200.397 242.949 C 199.633 242.949,199.320 243.031,199.702 243.131 M240.079 244.109 C 239.315 244.779,237.083 246.395,235.119 247.699 C 231.311 250.227,230.548 250.816,232.143 249.992 C 234.763 248.641,242.472 242.891,241.667 242.890 C 241.558 242.890,240.843 243.438,240.079 244.109 M103.571 245.229 C 103.571 248.175,110.804 260.176,113.739 262.099 C 115.318 263.133,115.257 262.606,113.458 259.667 C 112.002 257.290,107.619 249.461,105.985 246.321 C 105.675 245.726,105.349 245.312,105.259 245.402 C 105.066 245.596,109.681 254.145,112.199 258.258 C 114.729 262.390,114.189 262.584,111.031 258.675 C 107.442 254.232,103.391 245.851,104.494 245.150 C 104.802 244.954,104.725 244.851,104.266 244.847 C 103.884 244.844,103.571 245.016,103.571 245.229 M277.183 246.279 C 276.528 246.812,276.305 247.134,276.687 246.994 C 277.502 246.696,277.581 247.098,276.885 248.004 C 276.612 248.359,276.793 248.227,277.287 247.709 C 277.782 247.191,278.093 246.618,277.979 246.434 C 277.866 246.250,277.997 246.019,278.271 245.922 C 278.546 245.824,278.681 245.646,278.571 245.526 C 278.462 245.407,277.837 245.745,277.183 246.279 M280.173 247.196 C 279.670 248.135,279.647 248.531,280.111 248.244 C 280.461 248.027,281.007 246.429,280.731 246.429 C 280.650 246.429,280.399 246.774,280.173 247.196 M100.794 247.934 C 100.794 248.580,101.034 249.309,101.328 249.552 C 101.761 249.912,101.845 249.718,101.772 248.526 C 101.665 246.756,100.794 246.230,100.794 247.934 M123.810 249.405 C 124.995 250.605,126.054 251.587,126.163 251.587 C 126.272 251.587,125.392 250.605,124.206 249.405 C 123.021 248.204,121.962 247.222,121.853 247.222 C 121.743 247.222,122.624 248.204,123.810 249.405 M282.211 249.405 C 281.561 250.605,281.194 251.485,281.395 251.361 C 281.804 251.108,283.844 247.222,283.568 247.222 C 283.472 247.222,282.861 248.204,282.211 249.405 M98.258 248.611 C 98.584 250.070,98.812 250.387,98.803 249.372 C 98.800 248.953,98.616 248.343,98.395 248.016 C 98.100 247.581,98.064 247.742,98.258 248.611 M121.429 248.537 C 121.429 248.605,122.009 249.186,122.718 249.827 L 124.008 250.992 122.842 249.702 C 121.756 248.500,121.429 248.230,121.429 248.537 M293.726 249.457 C 293.003 250.026,291.186 252.123,289.687 254.115 C 288.188 256.108,285.504 259.345,283.722 261.310 L 280.482 264.881 283.940 261.310 C 285.842 259.345,288.557 256.178,289.972 254.270 C 291.387 252.363,293.195 250.271,293.991 249.621 C 295.770 248.166,295.543 248.025,293.726 249.457 M102.350 257.265 C 104.270 261.152,106.186 264.573,106.608 264.868 C 107.029 265.163,108.305 266.929,109.443 268.791 C 110.581 270.654,111.686 272.286,111.899 272.417 C 112.590 272.844,108.281 266.113,106.948 264.683 C 106.236 263.919,104.402 260.704,102.871 257.540 C 101.341 254.375,99.812 251.429,99.473 250.992 C 99.135 250.556,100.429 253.378,102.350 257.265 M278.357 250.820 C 278.213 251.053,278.190 251.339,278.307 251.455 C 278.591 251.739,279.365 251.238,279.365 250.770 C 279.365 250.263,278.680 250.297,278.357 250.820 M124.405 252.381 C 124.743 253.036,125.110 253.571,125.219 253.571 C 125.328 253.571,125.140 253.036,124.802 252.381 C 124.463 251.726,124.097 251.190,123.988 251.190 C 123.878 251.190,124.066 251.726,124.405 252.381 M175.794 251.385 C 175.794 251.657,178.223 252.861,178.405 252.680 C 178.491 252.594,177.939 252.226,177.178 251.863 C 176.416 251.500,175.794 251.285,175.794 251.385 M228.521 251.592 C 221.023 255.972,207.158 258.204,194.444 257.078 C 191.874 256.850,191.685 256.873,193.056 257.250 C 195.735 257.986,209.553 257.839,213.492 257.033 C 218.807 255.945,229.365 252.202,229.365 251.405 C 229.365 251.126,229.291 251.142,228.521 251.592 M279.272 253.210 L 277.976 254.437 279.464 253.362 C 280.283 252.770,280.952 252.219,280.952 252.135 C 280.952 251.766,280.478 252.069,279.272 253.210 M180.952 253.820 C 182.869 254.726,189.629 256.751,190.640 256.722 C 191.096 256.709,190.129 256.339,188.493 255.899 C 186.856 255.460,184.535 254.769,183.334 254.363 C 179.963 253.225,179.445 253.107,180.952 253.820 M127.275 256.151 C 130.412 259.830,134.797 264.013,135.064 263.581 C 135.523 262.839,129.463 255.649,127.579 254.700 C 127.143 254.480,127.800 255.212,129.040 256.326 C 131.339 258.391,134.381 262.180,134.026 262.535 C 133.917 262.643,131.898 260.715,129.537 258.251 C 127.177 255.786,126.159 254.841,127.275 256.151 M280.037 256.163 C 278.853 257.205,277.389 257.471,277.369 256.647 C 277.362 256.374,277.167 256.477,276.936 256.875 C 276.015 258.458,278.946 257.864,280.566 256.139 C 281.743 254.887,281.474 254.899,280.037 256.163 M113.492 256.775 C 113.492 257.253,115.455 260.714,115.726 260.714 C 115.822 260.714,115.702 260.342,115.458 259.887 C 114.680 258.433,115.321 258.662,116.404 260.224 C 116.979 261.054,118.204 262.441,119.128 263.307 L 120.807 264.881 118.954 262.835 C 117.935 261.709,116.462 259.790,115.681 258.569 C 114.353 256.493,113.492 255.787,113.492 256.775 M117.873 264.050 C 118.619 265.089,119.400 266.044,119.610 266.174 C 119.819 266.303,119.380 265.559,118.635 264.521 C 117.889 263.483,117.108 262.527,116.898 262.398 C 116.689 262.268,117.128 263.012,117.873 264.050 M121.032 265.204 C 121.032 265.272,121.612 265.852,122.321 266.493 L 123.611 267.659 122.446 266.369 C 121.359 265.167,121.032 264.897,121.032 265.204 M122.024 269.444 C 122.876 270.317,123.663 271.032,123.772 271.032 C 123.881 271.032,123.273 270.317,122.421 269.444 C 121.568 268.571,120.781 267.857,120.672 267.857 C 120.563 267.857,121.171 268.571,122.024 269.444 M112.553 273.413 C 112.780 273.740,113.374 275.038,113.873 276.296 C 114.372 277.555,114.920 278.672,115.091 278.777 C 115.586 279.083,113.264 273.813,112.673 273.289 C 112.244 272.909,112.221 272.933,112.553 273.413 M116.065 276.597 C 115.927 276.821,115.995 276.955,116.215 276.895 C 116.436 276.835,117.180 277.411,117.868 278.175 L 119.119 279.563 117.860 277.877 C 116.486 276.037,116.434 276.001,116.065 276.597 M116.081 280.383 C 116.450 281.053,117.104 282.035,117.536 282.566 L 118.320 283.532 117.649 282.315 C 117.280 281.646,116.626 280.664,116.194 280.133 L 115.410 279.167 116.081 280.383 M293.849 283.730 C 294.702 284.603,295.488 285.317,295.598 285.317 C 295.707 285.317,295.099 284.603,294.246 283.730 C 293.394 282.857,292.607 282.143,292.498 282.143 C 292.389 282.143,292.997 282.857,293.849 283.730 M207.051 309.018 C 207.764 309.106,208.835 309.104,209.432 309.014 C 210.028 308.923,209.444 308.851,208.135 308.853 C 206.825 308.855,206.338 308.929,207.051 309.018 M202.877 311.009 C 204.568 311.084,207.336 311.084,209.028 311.009 C 210.719 310.935,209.335 310.874,205.952 310.874 C 202.569 310.874,201.186 310.935,202.877 311.009 " stroke="none" fill="#e89a9c" fill-rule="evenodd"></path><path id="path4" d="M202.083 243.131 C 202.465 243.230,203.090 243.230,203.472 243.131 C 203.854 243.031,203.542 242.949,202.778 242.949 C 202.014 242.949,201.701 243.031,202.083 243.131 M73.479 273.710 C 73.543 275.511,73.553 275.527,73.705 274.059 L 73.863 272.522 75.126 273.661 C 76.338 274.754,76.334 274.740,75.021 273.313 C 73.325 271.468,73.399 271.449,73.479 273.710 M78.571 277.778 C 79.926 279.306,81.123 280.556,81.233 280.556 C 81.342 280.556,80.323 279.306,78.968 277.778 C 77.614 276.250,76.416 275.000,76.307 275.000 C 76.198 275.000,77.217 276.250,78.571 277.778 M73.910 277.579 C 73.914 278.452,73.995 278.763,74.090 278.269 C 74.185 277.776,74.181 277.061,74.082 276.682 C 73.983 276.302,73.905 276.706,73.910 277.579 M290.079 280.300 C 291.935 282.218,294.524 284.700,295.833 285.815 C 298.654 288.216,298.205 287.755,291.667 281.532 C 287.733 277.788,287.404 277.533,290.079 280.300 M331.126 279.861 L 329.960 281.151 331.250 279.985 C 331.959 279.344,332.540 278.764,332.540 278.696 C 332.540 278.389,332.212 278.659,331.126 279.861 M74.298 280.556 C 74.298 281.319,74.380 281.632,74.480 281.250 C 74.580 280.868,74.580 280.243,74.480 279.861 C 74.380 279.479,74.298 279.792,74.298 280.556 M84.127 283.867 C 85.764 285.570,87.817 287.517,88.690 288.193 C 90.496 289.591,90.487 289.581,85.119 284.515 C 81.335 280.944,81.289 280.914,84.127 283.867 M327.170 284.148 C 324.332 287.027,321.516 289.252,318.612 290.910 C 317.433 291.583,316.825 292.020,317.262 291.881 C 319.637 291.125,331.060 281.870,329.749 281.763 C 329.634 281.754,328.473 282.827,327.170 284.148 M74.690 282.937 C 74.686 283.482,74.825 284.375,75.000 284.921 C 75.427 286.254,75.427 284.814,75.000 283.135 C 74.728 282.066,74.696 282.045,74.690 282.937 M116.450 284.951 C 114.426 287.038,111.639 289.087,108.584 290.734 C 105.901 292.180,105.795 292.558,108.448 291.222 C 111.583 289.642,119.396 283.333,118.219 283.333 C 118.108 283.333,117.312 284.061,116.450 284.951 M75.625 287.473 C 75.752 288.331,76.286 290.295,76.811 291.838 C 77.949 295.180,77.743 293.973,76.377 289.286 C 75.836 287.431,75.497 286.615,75.625 287.473 M298.903 288.376 C 299.278 288.790,300.348 289.549,301.280 290.063 C 303.441 291.253,303.157 290.938,300.401 289.087 C 299.203 288.282,298.529 287.963,298.903 288.376 M90.676 289.685 C 90.942 290.115,93.254 291.403,93.254 291.121 C 93.254 291.028,92.618 290.576,91.841 290.118 C 91.064 289.659,90.540 289.464,90.676 289.685 M95.040 292.085 C 95.913 292.498,96.984 292.835,97.421 292.834 C 97.857 292.832,97.232 292.486,96.032 292.063 C 93.310 291.106,92.986 291.113,95.040 292.085 M305.357 292.085 C 306.230 292.498,307.302 292.835,307.738 292.834 C 308.175 292.832,307.550 292.486,306.349 292.063 C 303.627 291.106,303.303 291.113,305.357 292.085 M99.504 293.144 C 100.213 293.232,101.374 293.232,102.083 293.144 C 102.793 293.056,102.212 292.984,100.794 292.984 C 99.375 292.984,98.795 293.056,99.504 293.144 M309.821 293.144 C 310.531 293.232,311.691 293.232,312.401 293.144 C 313.110 293.056,312.530 292.984,311.111 292.984 C 309.692 292.984,309.112 293.056,309.821 293.144 M78.005 295.635 C 78.151 296.181,78.436 296.895,78.638 297.222 C 78.894 297.636,78.925 297.515,78.741 296.825 C 78.595 296.280,78.310 295.565,78.108 295.238 C 77.852 294.824,77.821 294.945,78.005 295.635 M78.996 298.214 C 78.996 298.433,79.252 299.058,79.563 299.603 C 79.875 300.149,80.131 300.417,80.131 300.198 C 80.131 299.980,79.875 299.355,79.563 298.810 C 79.252 298.264,78.996 297.996,78.996 298.214 M202.282 309.414 C 202.991 309.502,204.152 309.502,204.861 309.414 C 205.570 309.326,204.990 309.254,203.571 309.254 C 202.153 309.254,201.572 309.326,202.282 309.414 M325.174 311.377 C 324.562 312.179,324.265 312.709,324.513 312.556 C 325.021 312.242,326.739 309.921,326.463 309.921 C 326.365 309.921,325.785 310.576,325.174 311.377 M197.396 312.798 L 196.230 314.087 197.520 312.922 C 198.722 311.835,198.992 311.508,198.685 311.508 C 198.617 311.508,198.037 312.088,197.396 312.798 M194.444 315.128 C 193.061 316.340,193.061 316.342,194.333 315.495 C 195.036 315.028,195.716 314.475,195.845 314.267 C 196.228 313.648,195.910 313.843,194.444 315.128 M91.071 317.022 C 93.293 319.369,98.445 323.613,100.463 324.759 C 102.286 325.794,101.488 325.087,98.362 322.900 C 96.915 321.888,94.236 319.680,92.409 317.993 C 90.292 316.037,89.807 315.685,91.071 317.022 M217.857 315.682 C 217.857 315.766,218.616 316.351,219.544 316.982 C 221.470 318.292,225.310 320.510,224.976 320.120 C 224.649 319.737,217.857 315.504,217.857 315.682 M320.025 317.560 L 318.056 319.643 320.139 317.674 C 321.285 316.591,322.222 315.653,322.222 315.590 C 322.222 315.294,321.855 315.624,320.025 317.560 M189.473 318.404 C 189.043 318.704,186.458 320.130,183.730 321.572 C 181.002 323.014,178.948 324.194,179.167 324.194 C 180.003 324.194,191.175 317.949,190.465 317.878 C 190.350 317.867,189.904 318.103,189.473 318.404 M315.675 321.293 C 313.976 322.849,313.924 322.934,315.316 321.888 C 316.785 320.783,318.182 319.421,317.807 319.460 C 317.725 319.468,316.766 320.293,315.675 321.293 M225.397 320.435 C 225.397 320.698,234.175 325.084,234.350 324.909 C 234.427 324.832,232.444 323.750,229.944 322.506 C 227.443 321.261,225.397 320.329,225.397 320.435 M235.714 325.595 C 236.260 325.907,236.885 326.162,237.103 326.162 C 237.321 326.162,237.054 325.907,236.508 325.595 C 235.962 325.283,235.337 325.028,235.119 325.028 C 234.901 325.028,235.169 325.283,235.714 325.595 M173.413 326.389 C 172.867 326.701,172.599 326.956,172.817 326.956 C 173.036 326.956,173.661 326.701,174.206 326.389 C 174.752 326.077,175.020 325.822,174.802 325.822 C 174.583 325.822,173.958 326.077,173.413 326.389 M127.877 334.004 C 128.259 334.104,128.884 334.104,129.266 334.004 C 129.648 333.904,129.335 333.822,128.571 333.822 C 127.808 333.822,127.495 333.904,127.877 334.004 M142.956 334.004 C 143.338 334.104,143.963 334.104,144.345 334.004 C 144.727 333.904,144.415 333.822,143.651 333.822 C 142.887 333.822,142.574 333.904,142.956 334.004 M267.560 334.004 C 267.941 334.104,268.566 334.104,268.948 334.004 C 269.330 333.904,269.018 333.822,268.254 333.822 C 267.490 333.822,267.178 333.904,267.560 334.004 " stroke="none" fill="#9c9492" fill-rule="evenodd"></path></g></svg>